<?xml version="1.0" encoding="UTF-8"?>
<svg width="52px" height="52px" viewBox="0 0 52 52" version="1.1" xmlns="http://www.w3.org/2000/svg" xmlns:xlink="http://www.w3.org/1999/xlink">
    <title>icon/k_01</title>
    <defs>
        <polygon id="path-1" points="0.0003 0.9762 51.0243 0.9762 51.0243 52 0.0003 52"></polygon>
    </defs>
    <g id="Symbols" stroke="none" stroke-width="1" fill="none" fill-rule="evenodd">
        <g id="icon/k_01">
            <path d="M23.0717,12.1831 L19.1647,16.0901 L22.9267,19.8171 C23.5057,19.7081 24.0847,19.8531 24.5187,20.2871 C25.2067,21.0111 25.2067,22.1331 24.5187,22.8201 C23.7957,23.5081 22.6737,23.5081 21.9857,22.8201 C21.5517,22.3861 21.4077,21.7711 21.5157,21.2281 L17.7897,17.4651 L14.5687,20.6851 C14.0257,21.2651 13.7007,21.9881 13.7007,22.7841 C13.7007,23.5801 14.0257,24.3041 14.5687,24.8831 L19.9607,30.3101 C21.1177,31.4681 22.9997,31.4681 24.1567,30.3101 L30.7427,23.7251 C30.9597,23.5081 31.2847,23.3631 31.6107,23.2901 L33.9257,23.0371 L23.0717,12.1831 Z" id="Fill-1" fill="#FEFEFE"></path>
            <path d="M18.8022,13.3047 L17.0302,11.5317 C16.7032,11.2057 16.1242,11.2057 15.7992,11.5317 C15.4732,11.8577 15.4732,12.4357 15.7992,12.7617 L17.5722,14.5347 L18.8022,13.3047 Z" id="Fill-3" fill="#FEFEFE"></path>
            <path d="M30.308,38.0166 C30.308,40.0066 31.936,41.6346 33.926,41.6346 C35.88,41.6346 37.508,40.0066 37.544,38.0166 C37.544,36.2796 34.758,31.4316 33.926,29.9846 C33.058,31.4316 30.308,36.2796 30.308,38.0166" id="Fill-8" fill="#FEFEFE"></path>
            <g>
                <mask id="mask-2" fill="white">
                    <use xlink:href="#path-1"></use>
                </mask>
                <g id="Clip-6"></g>
                <path d="M33.9623,43.6972 C30.8513,43.6972 28.3173,41.1642 28.3173,38.0522 C28.3173,35.5922 31.4653,30.1652 32.4423,28.5372 C32.7323,28.0302 33.3113,27.7042 33.9263,27.7042 C34.5053,27.7042 35.0833,28.0302 35.4093,28.5372 C36.3863,30.1292 39.5343,35.5922 39.6073,38.0522 C39.6073,41.1642 37.0733,43.6972 33.9623,43.6972 M21.0813,33.3492 C19.9963,33.1322 19.0193,32.5532 18.2233,31.7572 L13.0853,26.6192 C12.2893,25.8232 11.6743,24.8462 11.4933,23.7612 C11.2043,22.0242 11.7463,20.3232 12.9413,19.1302 L16.1603,15.9092 L14.3883,14.1362 C13.2663,13.0152 13.2663,11.2422 14.3883,10.1202 C15.5093,8.9992 17.2823,8.9992 18.4043,10.1202 L20.1773,11.8932 L22.1313,9.9392 C22.6373,9.4332 23.4693,9.4332 23.9763,9.9392 L35.9883,21.9882 C36.4943,22.4942 36.6763,23.2542 36.4223,23.9422 C36.2053,24.6652 35.5903,25.1352 34.8663,25.2082 L32.6233,25.4612 C32.2983,25.4972 32.0083,25.6422 31.7193,25.8962 L25.7133,31.9022 C24.5193,33.1322 22.8183,33.6752 21.0813,33.3492 M25.5123,0.9762 C11.4223,0.9762 0.0003,12.3982 0.0003,26.4882 C0.0003,40.5782 11.4223,52.0002 25.5123,52.0002 C39.6023,52.0002 51.0243,40.5782 51.0243,26.4882 C51.0243,12.3982 39.6023,0.9762 25.5123,0.9762" id="Fill-5" fill="#FEFEFE" mask="url(#mask-2)"></path>
            </g>
        </g>
    </g>
</svg>