<?xml version="1.0" encoding="UTF-8"?>
<svg width="52px" height="52px" viewBox="0 0 52 52" version="1.1" xmlns="http://www.w3.org/2000/svg" xmlns:xlink="http://www.w3.org/1999/xlink">
    <title>icon/k_02</title>
    <g id="Symbols" stroke="none" stroke-width="1" fill="none" fill-rule="evenodd">
        <g id="icon/k_02" fill="#FEFEFE">
            <g transform="translate(0.000000, 0.000000)">
                <path d="M16.7546,16.1406 L23.7966,16.1406 C24.2806,16.1406 24.6526,16.5136 24.6526,16.9976 C24.6526,17.4816 24.2806,17.8546 23.7966,17.8546 L16.7546,17.8546 C16.2706,17.8546 15.8986,17.4816 15.8986,16.9976 C15.8986,16.5136 16.2706,16.1406 16.7546,16.1406 L16.7546,16.1406 Z M16.7546,12.1916 L23.7966,12.1916 C24.2806,12.1916 24.6526,12.5636 24.6526,13.0486 C24.6526,13.5326 24.2806,13.9056 23.7966,13.9056 L16.7546,13.9056 C16.2706,13.9056 15.8986,13.4956 15.8986,13.0486 C15.8986,12.5636 16.2706,12.1916 16.7546,12.1916 L16.7546,12.1916 Z M18.0216,20.4996 C18.2816,20.4996 18.5426,20.6116 18.6916,20.8356 C19.4376,21.8046 20.9276,23.5926 22.6416,24.5606 C22.7156,24.5986 22.7906,24.5986 22.8646,24.5236 C22.9396,24.4866 22.9776,24.3746 22.9396,24.3006 C22.5666,23.3686 22.3806,22.3626 22.3806,21.3566 C22.3806,21.1336 22.4926,20.9096 22.6416,20.7606 C22.7906,20.5746 23.0146,20.4996 23.2376,20.4996 L24.5046,20.4996 C26.1446,20.4996 27.4846,19.1586 27.4846,17.5196 L27.4846,12.4896 C27.4846,10.8496 26.1446,9.5086 24.5046,9.5086 L16.0466,9.5086 C14.4076,9.5086 13.0666,10.8496 13.0666,12.4896 L13.0666,17.5196 C13.0666,19.1586 14.4076,20.4996 16.0466,20.4996 L18.0216,20.4996 Z" id="Fill-10"></path>
                <path d="M37.8054,29.2183 L35.1594,25.1943 C34.9364,24.7843 34.8254,24.4123 34.7874,24.0023 C34.4514,20.3883 32.1794,17.4453 29.0494,16.1033 L29.0494,17.5563 C29.0494,20.1273 26.9634,22.2143 24.3924,22.2143 L24.0574,22.2143 C24.1314,22.6613 24.2434,23.1823 24.4304,23.7043 C24.7284,24.4493 24.5414,25.3063 23.9084,25.8273 C23.5734,26.1633 23.1254,26.3123 22.6784,26.3123 C22.3434,26.3123 22.0454,26.2003 21.7474,26.0513 C19.9954,25.0453 18.5434,23.4803 17.5364,22.2143 L16.2704,22.2143 C16.0464,23.0333 15.8984,23.9273 15.8984,24.8223 C15.8984,27.8773 17.3884,31.0443 19.7734,33.0933 C20.2564,33.5403 20.5554,34.1363 20.5554,34.7693 L20.5554,40.6563 L29.4964,41.5133 L29.5714,37.2663 C29.5714,36.5213 30.1674,35.9253 30.9124,35.9253 L34.0424,35.9253 C34.5274,35.9253 34.9364,35.5143 34.9364,35.0303 L34.9364,30.8573 C34.9364,30.1873 35.4584,29.6653 36.1284,29.6653 L37.6574,29.6653 C37.8054,29.6653 37.8794,29.5913 37.9174,29.5163 C37.9544,29.4423 37.9924,29.3303 37.8054,29.2183" id="Fill-12"></path>
                <path d="M39.445,30.336 C39.109,30.969 38.439,31.379 37.694,31.379 L36.687,31.379 L36.687,35.031 C36.687,36.483 35.496,37.639 34.08,37.639 L31.285,37.639 L31.285,41.439 C31.285,41.923 31.099,42.408 30.726,42.743 C30.391,43.041 29.981,43.19 29.534,43.19 L29.385,43.19 L20.48,42.408 C19.549,42.333 18.879,41.588 18.879,40.656 L18.879,34.732 C18.879,34.546 18.766,34.435 18.692,34.36 C15.898,31.976 14.221,28.399 14.221,24.822 C14.221,23.816 14.333,22.884 14.593,21.953 C12.731,21.357 11.352,19.606 11.352,17.52 L11.352,12.49 C11.352,9.919 13.439,7.833 16.009,7.833 L24.505,7.833 C27.075,7.833 29.162,9.919 29.162,12.49 L29.162,14.241 C33.222,15.656 36.204,19.308 36.613,23.853 C36.613,24.04 36.65,24.189 36.725,24.3 L39.333,28.287 C39.743,28.883 39.78,29.666 39.445,30.336 M25.511,1.0658141e-14 C11.422,1.0658141e-14 -2.13162821e-14,11.421 -2.13162821e-14,25.511 C-2.13162821e-14,39.601 11.422,51.023 25.511,51.023 C39.601,51.023 51.023,39.601 51.023,25.511 C51.023,11.421 39.601,1.0658141e-14 25.511,1.0658141e-14" id="Fill-14"></path>
            </g>
        </g>
    </g>
</svg>