<?xml version="1.0" encoding="UTF-8"?>
<svg width="52px" height="52px" viewBox="0 0 52 52" version="1.1" xmlns="http://www.w3.org/2000/svg" xmlns:xlink="http://www.w3.org/1999/xlink">
    <title>icon/k_03</title>
    <g id="Symbols" stroke="none" stroke-width="1" fill="none" fill-rule="evenodd">
        <g id="icon/k_03" fill="#FEFEFE">
            <g>
                <path d="M34.2672,20.3377 C35.1772,21.8537 35.7072,23.6347 35.7072,25.5307 C35.7072,27.4257 35.1772,29.2077 34.2672,30.7237 C37.3752,28.9417 39.4222,26.6677 40.3312,25.5307 C39.4602,24.3937 37.3752,22.0807 34.2672,20.3377" id="Fill-16"></path>
                <path d="M10.6911,25.5306 C11.6011,26.6676 13.6481,28.9416 16.7551,30.7236 C15.8461,29.2076 15.3151,27.4256 15.3151,25.5306 C15.3151,23.6346 15.8461,21.8536 16.7551,20.3376 C13.6481,22.1186 11.5631,24.3936 10.6911,25.5306" id="Fill-18"></path>
                <path d="M25.4733,30.6854 C22.6303,30.6854 20.3563,28.4114 20.3563,25.5684 C20.3563,24.8484 20.5083,24.1654 20.7733,23.5594 C21.0383,24.4314 21.8723,25.0384 22.8203,25.0384 C24.0343,25.0384 24.9813,24.0524 24.9813,22.8774 C24.9813,21.9294 24.3743,21.0954 23.5023,20.8304 C24.1093,20.5644 24.7913,20.4134 25.5113,20.4134 C28.3543,20.4134 30.6283,22.6874 30.5903,25.5684 C30.5903,28.4114 28.3163,30.6854 25.4733,30.6854 M25.5113,18.0254 C21.3793,18.0254 18.0063,21.3984 18.0063,25.5304 C18.0063,29.6624 21.3793,33.0354 25.5113,33.0354 C29.6433,33.0354 33.0163,29.6624 33.0163,25.5304 C33.0163,21.3984 29.6433,18.0254 25.5113,18.0254" id="Fill-20"></path>
                <path d="M42.569,26.971 C40.976,29.018 35.101,35.689 25.511,35.689 C15.922,35.689 10.047,29.017 8.455,26.971 C7.81,26.099 7.81,24.924 8.455,24.052 C10.047,22.005 15.922,15.334 25.511,15.334 C35.101,15.334 40.976,22.005 42.569,24.052 C43.213,24.924 43.213,26.137 42.569,26.971 M25.511,1.0658141e-14 C11.422,1.0658141e-14 0,11.422 0,25.512 C0,39.601 11.422,51.023 25.511,51.023 C39.601,51.023 51.023,39.601 51.023,25.512 C51.023,11.422 39.601,1.0658141e-14 25.511,1.0658141e-14" id="Fill-22"></path>
            </g>
        </g>
    </g>
</svg>