<?xml version="1.0" encoding="UTF-8"?>
<svg width="52px" height="52px" viewBox="0 0 52 52" version="1.1" xmlns="http://www.w3.org/2000/svg" xmlns:xlink="http://www.w3.org/1999/xlink">
    <title>icon/k_04</title>
    <g id="Symbols" stroke="none" stroke-width="1" fill="none" fill-rule="evenodd">
        <g id="icon/k_04" fill="#FEFEFE">
            <g>
                <path d="M18.5079,17.3685 C17.9369,17.3685 17.4729,16.9055 17.4729,16.3335 C17.4729,15.7625 17.9369,15.2985 18.5079,15.2985 C19.0799,15.2985 19.5429,15.7625 19.5429,16.3335 C19.5429,16.9055 19.0799,17.3685 18.5079,17.3685 M18.9219,20.4055 C18.8879,20.4735 17.9209,21.6125 16.2309,21.6125 C14.5399,21.6125 13.5739,20.4395 13.5389,20.4055 C13.2639,20.0595 13.2979,19.5765 13.6429,19.3015 C13.9879,19.0245 14.4709,19.0595 14.7469,19.4045 C14.7809,19.4385 15.2989,20.0255 16.2309,20.0255 C17.1619,20.0255 17.6799,19.4385 17.7139,19.4045 C17.9899,19.0945 18.4739,19.0595 18.8189,19.3015 C19.1289,19.5765 19.1979,20.0595 18.9219,20.4055 M12.9179,16.3335 C12.9179,15.7625 13.3819,15.2985 13.9529,15.2985 C14.5259,15.2985 14.9879,15.7625 14.9879,16.3335 C14.9879,16.9055 14.5259,17.3685 13.9529,17.3685 C13.3819,17.3685 12.9179,16.9055 12.9179,16.3335 M16.2309,12.3655 C13.1599,12.3655 10.6759,14.8495 10.6759,17.9205 C10.6759,20.9565 13.1949,23.4415 16.2309,23.4415 C19.3019,23.4415 21.7859,20.9565 21.7859,17.9205 C21.7859,14.8495 19.3019,12.3655 16.2309,12.3655" id="Fill-24"></path>
                <path d="M37.0704,17.3685 C36.4994,17.3685 36.0354,16.9055 36.0354,16.3335 C36.0354,15.7625 36.4994,15.2985 37.0704,15.2985 C37.6424,15.2985 38.1054,15.7625 38.1054,16.3335 C38.1054,16.9055 37.6424,17.3685 37.0704,17.3685 M37.3814,21.0265 C37.2434,21.1295 37.0704,21.1985 36.8984,21.1985 C36.6564,21.1985 36.4154,21.1295 36.2774,20.9225 C36.2424,20.8885 35.7244,20.3015 34.7944,20.3015 C33.8624,20.3015 33.3444,20.8885 33.3094,20.9225 C33.0344,21.2675 32.5504,21.3025 32.2064,21.0265 C31.8954,20.7495 31.8264,20.2665 32.1024,19.9225 C32.1364,19.8525 33.1024,18.7145 34.7944,18.7145 C36.4844,18.7145 37.4504,19.8525 37.4844,19.9225 C37.7604,20.2665 37.7264,20.7495 37.3814,21.0265 M31.4814,16.3335 C31.4814,15.7625 31.9444,15.2985 32.5164,15.2985 C33.0884,15.2985 33.5514,15.7625 33.5514,16.3335 C33.5514,16.9055 33.0884,17.3685 32.5164,17.3685 C31.9444,17.3685 31.4814,16.9055 31.4814,16.3335 M34.7944,12.3655 C31.7224,12.3655 29.2384,14.8495 29.2384,17.9205 C29.2384,20.9565 31.7224,23.4415 34.7944,23.4415 C37.8304,23.4415 40.3484,20.9565 40.3484,17.9205 C40.3484,14.8495 37.8644,12.3655 34.7944,12.3655" id="Fill-26"></path>
                <path d="M34.794,24.994 C30.86,24.994 27.686,21.82 27.686,17.886 C27.686,13.953 30.86,10.779 34.794,10.779 C38.727,10.779 41.901,14.022 41.901,17.921 C41.901,21.82 38.727,24.994 34.794,24.994 L34.794,24.994 Z M37.657,39.451 C37.657,39.899 37.313,40.244 36.863,40.244 C36.415,40.244 36.07,39.899 36.07,39.451 L36.07,33.068 C36.07,32.619 35.69,32.24 35.242,32.24 C34.794,32.24 34.414,32.619 34.414,33.068 L34.414,33.137 L34.414,34.138 C34.414,34.586 34.069,34.931 33.62,34.931 C33.172,34.931 32.827,34.586 32.827,34.138 L32.827,32.136 C32.827,31.687 32.447,31.308 31.999,31.308 C31.55,31.308 31.171,31.687 31.171,32.136 L31.171,33.206 C31.171,33.654 30.825,33.999 30.377,33.999 C29.929,33.999 29.583,33.654 29.583,33.206 L29.583,31.136 C29.583,30.687 29.204,30.307 28.756,30.307 C28.307,30.307 27.928,30.687 27.928,31.136 L27.928,32.205 C27.928,32.654 27.582,32.999 27.134,32.999 C26.686,32.999 26.34,32.654 26.34,32.205 L26.34,24.304 C26.34,24.097 26.272,23.89 26.099,23.717 C25.961,23.579 25.788,23.476 25.512,23.476 C25.064,23.476 24.684,23.855 24.684,24.304 L24.684,35.828 C24.684,36.311 24.408,36.725 23.96,36.897 C23.511,37.07 23.027,37.001 22.683,36.656 L20.889,34.896 C20.578,34.62 20.13,34.551 19.784,34.793 C19.577,34.931 19.44,35.138 19.405,35.379 C19.336,35.621 19.405,35.828 19.577,36.035 L22.062,38.968 C22.338,39.313 22.304,39.796 21.958,40.072 C21.786,40.175 21.613,40.244 21.44,40.244 C21.233,40.244 20.992,40.141 20.855,39.968 L18.37,37.036 C17.921,36.518 17.714,35.828 17.818,35.138 C17.921,34.482 18.301,33.861 18.853,33.482 C19.819,32.826 21.096,32.93 21.924,33.758 L23.027,34.827 L23.027,24.338 C23.027,22.993 24.098,21.923 25.408,21.923 C26.065,21.958 26.65,22.165 27.1,22.613 C27.548,23.062 27.789,23.648 27.789,24.304 L27.789,28.893 C28.031,28.824 28.307,28.755 28.617,28.755 C29.515,28.755 30.309,29.238 30.722,29.997 C31.067,29.825 31.446,29.721 31.86,29.721 C32.758,29.721 33.552,30.204 33.965,30.963 C34.311,30.79 34.69,30.687 35.105,30.687 C36.415,30.687 37.484,31.757 37.657,33.068 L37.657,39.451 Z M9.123,17.921 C9.123,13.988 12.298,10.813 16.231,10.813 C20.164,10.813 23.338,13.988 23.338,17.921 C23.338,21.82 20.164,25.029 16.231,25.029 C12.298,25.029 9.123,21.854 9.123,17.921 L9.123,17.921 Z M25.512,1.0658141e-14 C11.422,1.0658141e-14 0,11.422 0,25.512 C0,39.601 11.422,51.023 25.512,51.023 C39.602,51.023 51.024,39.601 51.024,25.512 C51.024,11.422 39.602,1.0658141e-14 25.512,1.0658141e-14 L25.512,1.0658141e-14 Z" id="Fill-28"></path>
            </g>
        </g>
    </g>
</svg>