<?xml version="1.0" encoding="UTF-8"?>
<svg width="52px" height="52px" viewBox="0 0 52 52" version="1.1" xmlns="http://www.w3.org/2000/svg" xmlns:xlink="http://www.w3.org/1999/xlink">
    <title>icon/k_05</title>
    <defs>
        <polygon id="path-1" points="0.0662 0.9761 51.089 0.9761 51.089 52 0.0662 52"></polygon>
    </defs>
    <g id="Symbols" stroke="none" stroke-width="1" fill="none" fill-rule="evenodd">
        <g id="icon/k_05">
            <g>
                <mask id="mask-2" fill="white">
                    <use xlink:href="#path-1"></use>
                </mask>
                <g id="Clip-31"></g>
                <path d="M35.3452,30.5571 C35.9872,30.5571 36.5072,31.0781 36.5072,31.7191 C36.5072,32.3611 35.9872,32.8821 35.3452,32.8821 C34.7022,32.8821 34.1822,32.3611 34.1822,31.7191 C34.1822,31.0781 34.7022,30.5571 35.3452,30.5571 M36.7612,25.3261 C37.4042,25.3261 37.9242,25.8461 37.9242,26.4881 C37.9242,27.1301 37.4042,27.6511 36.7612,27.6511 C36.1192,27.6511 35.5992,27.1301 35.5992,26.4881 C35.5992,25.8461 36.1192,25.3261 36.7612,25.3261 M35.3452,22.4191 C34.7022,22.4191 34.1822,21.8991 34.1822,21.2571 C34.1822,20.6151 34.7022,20.0941 35.3452,20.0941 C35.9872,20.0941 36.5072,20.6151 36.5072,21.2571 C36.5072,21.8991 35.9872,22.4191 35.3452,22.4191 M26.2632,35.7881 C26.9052,35.7881 27.4252,36.3081 27.4252,36.9511 C27.4252,37.5931 26.9052,38.1131 26.2632,38.1131 C25.6202,38.1131 25.1002,37.5931 25.1002,36.9511 C25.1002,36.3081 25.6202,35.7881 26.2632,35.7881 M26.2632,17.1881 C25.6202,17.1881 25.1002,16.6681 25.1002,16.0261 C25.1002,15.3841 25.6202,14.8631 26.2632,14.8631 C26.9052,14.8631 27.4252,15.3841 27.4252,16.0261 C27.4252,16.6681 26.9052,17.1881 26.2632,17.1881 M30.5852,28.9221 C30.4042,29.2861 30.0402,29.4671 29.6772,29.4671 C29.4952,29.4671 29.3142,29.4311 29.1322,29.3221 L25.7902,27.3961 C25.4632,27.2151 25.2452,26.8511 25.2452,26.4881 L25.2452,19.5131 C25.2452,18.9321 25.7172,18.4591 26.2992,18.4591 C26.8802,18.4591 27.3532,18.9321 27.3532,19.5131 L27.3532,25.8701 L30.1862,27.4691 C30.6952,27.7601 30.8762,28.4131 30.5852,28.9221 M32.6572,35.5701 C32.6572,36.2121 32.1362,36.7331 31.4932,36.7331 C30.8522,36.7331 30.3312,36.2121 30.3312,35.5701 C30.3312,34.9281 30.8522,34.4081 31.4932,34.4081 C32.1362,34.4081 32.6572,34.9281 32.6572,35.5701 M31.4932,18.5691 C30.8522,18.5691 30.3312,18.0481 30.3312,17.4061 C30.3312,16.7641 30.8522,16.2441 31.4932,16.2441 C32.1362,16.2441 32.6572,16.7641 32.6572,17.4061 C32.6572,18.0481 32.1362,18.5691 31.4932,18.5691 M19.8682,17.4061 C19.8682,16.7641 20.3892,16.2441 21.0322,16.2441 C21.6732,16.2441 22.1942,16.7641 22.1942,17.4061 C22.1942,18.0481 21.6732,18.5691 21.0322,18.5691 C20.3892,18.5691 19.8682,18.0481 19.8682,17.4061 M21.0322,34.4081 C21.6732,34.4081 22.1942,34.9281 22.1942,35.5701 C22.1942,36.2121 21.6732,36.7331 21.0322,36.7331 C20.3892,36.7331 19.8682,36.2121 19.8682,35.5701 C19.8682,34.9281 20.3892,34.4081 21.0322,34.4081 M18.3792,31.7191 C18.3792,32.3611 17.8592,32.8821 17.2172,32.8821 C16.5742,32.8821 16.0542,32.3611 16.0542,31.7191 C16.0542,31.0781 16.5742,30.5571 17.2172,30.5571 C17.8592,30.5571 18.3792,31.0781 18.3792,31.7191 M17.2172,22.4191 C16.5742,22.4191 16.0542,21.8991 16.0542,21.2571 C16.0542,20.6151 16.5742,20.0941 17.2172,20.0941 C17.8592,20.0941 18.3792,20.6151 18.3792,21.2571 C18.3792,21.8991 17.8592,22.4191 17.2172,22.4191 M26.2992,41.8191 C17.8342,41.8191 10.9682,34.9161 10.9682,26.4881 L10.9682,25.2171 L8.8982,27.2871 C8.4982,27.6871 7.8082,27.6871 7.4082,27.2871 C7.0082,26.8881 7.0082,26.1981 7.4082,25.7981 L11.2952,21.9111 C11.6952,21.5111 12.3852,21.5111 12.7842,21.9111 L16.6722,25.7981 C17.0722,26.1981 17.0722,26.8881 16.6722,27.2871 C16.4532,27.5051 16.1632,27.6141 15.9092,27.6141 C15.6182,27.6141 15.3652,27.5051 15.1462,27.2871 L13.0752,25.2171 L13.0752,26.4881 C13.0752,33.7541 18.9602,39.6751 26.2632,39.6751 C33.5652,39.6751 39.4132,33.7541 39.4132,26.4881 C39.4132,19.2231 33.4912,13.3011 26.2262,13.3011 C21.6492,13.3011 17.4712,15.6261 15.0372,19.5131 C14.7462,19.9851 14.0932,20.1671 13.5842,19.8401 C13.1122,19.5491 12.9302,18.8951 13.2572,18.3871 C16.0912,13.8461 20.9222,11.1581 26.2632,11.1581 C34.7272,11.1581 41.5932,18.0601 41.5932,26.4881 C41.5932,34.9161 34.7632,41.8191 26.2992,41.8191 M25.5772,0.9761 C11.4882,0.9761 0.0662,12.3981 0.0662,26.4881 C0.0662,40.5781 11.4882,52.0001 25.5772,52.0001 C39.6672,52.0001 51.0892,40.5781 51.0892,26.4881 C51.0892,12.3981 39.6672,0.9761 25.5772,0.9761" id="Fill-30" fill="#FEFEFE" mask="url(#mask-2)"></path>
            </g>
        </g>
    </g>
</svg>