<?xml version="1.0" encoding="UTF-8"?>
<svg width="130px" height="130px" viewBox="0 0 130 130" version="1.1" xmlns="http://www.w3.org/2000/svg" xmlns:xlink="http://www.w3.org/1999/xlink">
    <title>Logo/architecture</title>
    <defs>
        <filter id="filter-1">
            <feColorMatrix in="SourceGraphic" type="matrix" values="0 0 0 0 1.000000 0 0 0 0 1.000000 0 0 0 0 1.000000 0 0 0 1.000000 0"></feColorMatrix>
        </filter>
    </defs>
    <g id="Symbols" stroke="none" stroke-width="1" fill="none" fill-rule="evenodd">
        <g id="Logo/architecture">
            <g filter="url(#filter-1)">
                <g>
                    <path d="M9.2134507,6.09375 L6.91058031,6.09375 C3.09411337,6.09375 0,9.21957011 0,13.0751461 L0,101.5625 C1.98204349,100.022457 4.4098988,99.1833374 6.91058031,99.1753836 L9.2134507,99.1753836 C11.7141322,99.1833374 14.1419875,100.022457 16.124031,101.5625 L16.124031,13.0751461 C16.124031,9.21957011 13.0299176,6.09375 9.2134507,6.09375 Z" id="Path" fill="#000000" fill-rule="nonzero"></path>
                    <path d="M9.2134507,104.609375 L6.91058031,104.609375 C3.09411337,104.609375 0,107.792496 0,111.71875 L16.124031,111.71875 C16.124031,107.792496 13.0299176,104.609375 9.2134507,104.609375 Z" id="Path" fill="#000000" fill-rule="nonzero"></path>
                    <polygon id="Path" fill="#000000" fill-rule="nonzero" points="33.255814 122.986141 39.207099 115.78125 46.3565891 121.779484 40.4053041 128.984375"></polygon>
                    <polygon id="Path" fill="#000000" fill-rule="nonzero" points="96.4548509 39.609375 115.935759 17.9693457 115.935759 17.9359647 115.963314 17.9359647 119.922481 13.5418037 113.157552 7.109375 89.6899225 33.1769463"></polygon>
                    <polygon id="Path" fill="#000000" fill-rule="nonzero" points="115.891473 3.56345096 119.077858 0 125.968992 6.59279904 122.782607 10.15625"></polygon>
                    <path d="M47.0294007,110.198975 C46.0558583,109.419645 44.6073214,109.544828 43.7947275,110.479459 C43.7947275,110.479459 43.7937462,110.4804 43.7937462,110.4804 L42.3255814,112.174595 L49.3867081,117.8125 L50.8568356,116.120187 C51.673355,115.18838 51.5467553,113.79914 50.5761571,113.016045 C50.5732129,113.014163 50.5702686,113.01228 50.5673244,113.009457 L47.0294007,110.198975 Z" id="Path" fill="#000000" fill-rule="nonzero"></path>
                    <polygon id="Path" fill="#000000" fill-rule="nonzero" points="86.6666667 42.65625 91.7054264 41.2033754 87.7411906 37.578125"></polygon>
                    <polygon id="Path" fill="#000000" fill-rule="nonzero" points="120.930233 22.34375 124.96124 17.7452082 123.430455 16.25 120.930233 19.1039752"></polygon>
                    <polygon id="Path" fill="#000000" fill-rule="nonzero" points="53.4108527 59.921875 76.5891473 59.921875 76.5891473 83.28125 53.4108527 83.28125"></polygon>
                    <polygon id="Path" fill="#000000" fill-rule="nonzero" points="120.930233 120.859375 120.930233 112.734375 112.868217 120.859375"></polygon>
                    <path d="M115.891473,97.4690396 L115.891473,25.0108898 L98.1745125,44.3684595 C97.9761,44.5750492 97.7411635,44.7427163 97.4815492,44.8614806 C97.4193602,44.8924192 97.364081,44.9173696 97.3009049,44.9433183 C97.2387158,44.9692666 97.192321,44.9992073 97.1330931,45.0181697 L84.193829,48.8306007 C82.9688039,49.1918836 81.6865255,48.4802964 81.3291855,47.241755 C81.2225758,46.8744842 81.2077688,46.486255 81.2857519,46.111 L84.0437857,32.7774708 C84.0605668,32.7036176 84.0970904,32.6357523 84.11782,32.562897 C84.1385499,32.4910396 84.1622409,32.4301603 84.1898803,32.362295 C84.2856318,32.1127905 84.4248167,31.8822481 84.6005252,31.6826444 L96.8665689,18.28125 L21.1627907,18.28125 L21.1627907,111.71875 L36.8739085,111.71875 L40.002115,107.918295 C42.4511777,104.944199 46.8221773,104.540002 49.7638166,107.016086 L53.3155004,110.004154 C53.8830987,110.493183 54.3677782,111.072034 54.7517707,111.71875 L102.467529,111.71875 L115.891473,97.4690396 Z M62.7504631,32.2964259 L67.3721929,32.2964259 L67.3721929,36.9691491 L62.7504631,36.9691491 L62.7504631,32.2964259 Z M67.3721929,97.7025761 L62.7504631,97.7025761 L62.7504631,93.0308506 L67.3721929,93.0308506 L67.3721929,97.7025761 Z M97.4075146,88.3591254 L32.7151413,88.3591254 C31.4387858,88.3591254 30.4042764,87.3132018 30.4042764,86.0227638 C30.4042764,84.7333237 31.4387858,83.6874002 32.7151413,83.6874002 L48.8882346,83.6874002 L48.8882346,57.9924122 C48.8882346,57.9425111 48.9138998,57.9005942 48.9158742,57.8496954 C48.9296939,57.6381155 48.9711533,57.4305276 49.0412394,57.2309239 C49.061969,57.1560724 49.0876342,57.0832171 49.1172482,57.0113598 C49.2258323,56.766845 49.3748883,56.5432888 49.5584941,56.3496733 L63.4207223,42.3344974 C64.3229568,41.4223085 65.7858795,41.4223085 66.6881137,42.3344974 L80.5503422,56.3496733 C80.7339477,56.5432888 80.883004,56.766845 80.9915879,57.0113598 C81.0212018,57.0832171 81.046867,57.1560724 81.0675969,57.2309239 C81.137683,57.4305276 81.1791422,57.6401114 81.1929621,57.8516913 C81.1929621,57.9005942 81.2206014,57.9425111 81.2206014,57.9924122 L81.2206014,83.6874002 L97.3936947,83.6874002 C98.6700505,83.6874002 99.7045599,84.7333237 99.7045599,86.0237617 C99.7045599,87.3132018 98.6700505,88.3591254 97.3936947,88.3591254 L97.4075146,88.3591254 Z" id="Shape" fill="#000000" fill-rule="nonzero"></path>
                    <polygon id="Path" fill="#000000" fill-rule="nonzero" points="65 46.71875 56.4341085 54.84375 73.5658915 54.84375"></polygon>
                    <path d="M91.7054264,130 L130,130 L130,89.375 L91.7054264,130 Z M125.404848,123.036423 C125.404848,124.317856 124.376067,125.357284 123.10678,125.357284 L107.023256,125.357284 C105.754951,125.357284 104.72617,124.317856 104.72617,123.035431 C104.72617,122.420502 104.96864,121.830368 105.398608,121.394958 L121.483114,105.144958 C122.380352,104.238434 123.835172,104.238434 124.73241,105.144958 C125.162377,105.580368 125.404848,106.170502 125.404848,106.786423 L125.404848,123.036423 Z" id="Shape" fill="#000000" fill-rule="nonzero"></path>
                </g>
            </g>
        </g>
    </g>
</svg>