<?xml version="1.0" encoding="UTF-8"?>
<svg width="178px" height="184px" viewBox="0 0 178 184" version="1.1" xmlns="http://www.w3.org/2000/svg" xmlns:xlink="http://www.w3.org/1999/xlink">
    <title>Logo/K</title>
    <defs>
        <filter id="filter-1">
            <feColorMatrix in="SourceGraphic" type="matrix" values="0 0 0 0 1.000000 0 0 0 0 1.000000 0 0 0 0 1.000000 0 0 0 1.000000 0"></feColorMatrix>
        </filter>
        <polygon id="path-2" points="0.236404775 0.0677170606 35.7982332 0.0677170606 35.7982332 109.988827 0.236404775 109.988827"></polygon>
        <polygon id="path-4" points="0.578217092 0.462437472 109.693798 0.462437472 109.693798 177.025184 0.578217092 177.025184"></polygon>
    </defs>
    <g id="Symbols" stroke="none" stroke-width="1" fill="none" fill-rule="evenodd">
        <g id="Logo/K/normal" transform="translate(-1.000000, -1.000000)">
            <g filter="url(#filter-1)" id="Logo/K">
                <g>
                    <g id="Group-3" transform="translate(16.344828, 75.011173)">
                        <mask id="mask-3" fill="white">
                            <use xlink:href="#path-2"></use>
                        </mask>
                        <g id="Clip-2"></g>
                        <path d="M18.5907072,109.98911 C9.00278674,110.0654 1.16417666,102.328386 1.06785836,92.6969702 L0.236404775,0.382264547 C5.38943395,3.84228689 11.4546541,5.66979355 17.6516037,5.6270948 C23.8471369,5.55593021 29.8797788,3.62025337 34.9676515,0.0677170606 L35.7976886,92.3809994 C35.8727602,102.012415 28.1772111,109.890335 18.5907072,109.98911" id="Fill-1" fill="#FEFEFE" mask="url(#mask-3)"></path>
                    </g>
                    <g id="Group-6" transform="translate(68.517241, 6.139665)">
                        <mask id="mask-5" fill="white">
                            <use xlink:href="#path-4"></use>
                        </mask>
                        <g id="Clip-5"></g>
                        <path d="M80.1645899,171.745555 L5.78561379,94.3827692 C-1.14647109,86.8199128 -1.1592191,75.1825604 5.75728488,67.6040547 L65.1658472,5.73545064 C71.5129401,-1.01791267 82.1079533,-1.32520706 88.8318207,5.04972889 C89.1420223,5.34279669 89.4408923,5.64866842 89.7270143,5.96449877 C96.4522981,13.3495228 96.3673114,24.69523 89.5301284,31.9749773 L42.4602239,81.0040819 L104.490627,145.514564 C111.337725,152.785775 111.439709,164.13006 104.724341,171.525043 C98.5047279,178.393641 87.9196297,178.897263 81.0796138,172.651789 C80.7637464,172.362989 80.4577942,172.061385 80.1645899,171.7484 L80.1645899,171.745555 Z" id="Fill-4" fill="#FEFEFE" mask="url(#mask-5)"></path>
                    </g>
                    <path d="M33.6165541,20.7198202 C26.2479621,20.7655586 20.3127356,26.8959349 20.3573197,34.4113274 C20.4024085,41.9267199 26.4118954,47.981342 33.7790863,47.935861 C41.1462772,47.8898651 47.0815036,41.7594889 47.0369195,34.2440963 L47.0369195,34.2069339 C46.9736159,26.7044053 40.9697336,20.6712231 33.6165541,20.7183909 L33.6165541,20.7198202 Z M34.0326925,67.81466 C15.9285705,67.9547339 1.13814309,53.0983266 1.00083143,34.6285849 C0.873327746,16.1860003 15.4269626,1.12948743 33.5058641,1.00084816 C51.5847656,0.870779552 66.3429668,15.7171816 66.4704705,34.1597662 C66.5307195,42.9929966 63.1595781,51.4903356 57.0926445,57.7922309 C51.0313156,64.1455819 42.7239601,67.7560577 34.0326925,67.81466 L34.0326925,67.81466 Z" id="Fill-7" fill="#FEFEFE"></path>
                </g>
            </g>
        </g>
    </g>
</svg>