<?xml version="1.0" encoding="UTF-8"?>
<svg width="132px" height="130px" viewBox="0 0 132 130" version="1.1" xmlns="http://www.w3.org/2000/svg" xmlns:xlink="http://www.w3.org/1999/xlink">
    <title>Logo/Ks</title>
    <defs>
        <filter id="filter-1">
            <feColorMatrix in="SourceGraphic" type="matrix" values="0 0 0 0 0.529412 0 0 0 0 0.752941 0 0 0 0 0.164706 0 0 0 1.000000 0"></feColorMatrix>
        </filter>
        <polygon id="path-2" points="0 0.15868225 19.5491882 0.15868225 19.5491882 19.3825077 0 19.3825077"></polygon>
    </defs>
    <g id="Symbols" stroke="none" stroke-width="1" fill="none" fill-rule="evenodd">
        <g id="Logo/Ks" transform="translate(0.000000, -1.000000)">
            <g>
                <g id="Logo/K/g" transform="translate(78.376453, 1.000000)" fill="#87C02A">
                    <g id="Group">
                        <path d="M10.2108211,53.2668944 C7.37977611,53.2953433 5.05836599,51.0664071 5.02213048,48.2836837 L4.70419314,21.6122795 C6.22842215,22.6072582 8.02149523,23.1311731 9.8519727,23.113939 C11.6824502,23.0886624 13.4614966,22.5245348 14.961179,21.493939 L15.2802852,48.1653433 C15.3095074,50.9480667 13.043035,53.2310029 10.2108211,53.2668944" id="Fill-8"></path>
                        <path d="M43.8723199,51.0080412 L21.8423015,28.7025943 C19.7885665,26.5219135 19.7757088,23.1578284 21.8130793,20.9622114 L39.3124907,3.0319135 C41.1815414,1.0752752 44.3106526,0.978764559 46.3012677,2.8159135 C46.3936098,2.89978584 46.4812763,2.98825392 46.5666051,3.07901988 C48.5595579,5.20914754 48.5431935,8.48821137 46.5292007,10.5988071 L32.6638598,24.8065518 L51.03643,43.4066795 C53.0644494,45.502339 53.1030227,48.7825518 51.1264343,50.9253178 C49.294788,52.9152752 46.1680145,53.0692326 44.1435018,51.2688497 C44.0488219,51.1849773 43.9588176,51.0988071 43.8723199,51.0080412 Z" id="Fill-10"></path>
                        <path d="M9.72795376,5.67389222 C7.52810791,5.69342413 5.75958146,7.4616369 5.77945255,9.62393477 C5.79932363,11.7862326 7.59824115,13.5234241 9.798087,13.5038922 C11.9979328,13.4855092 13.7652904,11.7172965 13.7465882,9.55384967 L13.7465882,9.54350924 C13.7208727,7.38580711 11.9242929,5.6543603 9.72795376,5.67389222 Z M9.8892602,19.2232965 C4.48432545,19.2784454 0.0565804545,15.0147433 0.000473865345,9.7009135 C-0.052126062,4.39512626 4.28093906,0.0521475377 9.68002938,0.000445410014 C15.0779508,-0.0501077815 19.4963447,4.2089986 19.5489446,9.51478584 C19.5734913,12.0562326 18.5729238,14.5046156 16.7669929,16.3222326 C14.962231,18.1547858 12.48419,19.1991688 9.8892602,19.2232965 L9.8892602,19.2232965 Z" id="Fill-12"></path>
                    </g>
                </g>
                <g id="Logo/K/lines" transform="translate(1.023619, 77.000000)" stroke="#FEFEFE">
                    <g id="Group-2">
                        <path d="M10.2107041,53.2668944 C7.3796591,53.2953433 5.05824897,51.0664071 5.02201347,48.2836837 L4.70407613,21.6122795 C6.22830513,22.6072582 8.02137821,23.1311731 9.85185568,23.113939 C11.6823332,23.0886624 13.4613796,22.5245348 14.9622308,21.493939 L15.2801682,48.1653433 C15.3093904,50.9480667 13.0429179,53.2310029 10.2107041,53.2668944 Z" id="Stroke-14"></path>
                        <path d="M43.8722029,51.0080412 L21.8421845,28.7025943 C19.7884495,26.5219135 19.7767606,23.1578284 21.8129623,20.9622114 L39.3123736,3.0319135 C41.1814244,1.0752752 44.3105356,0.978764559 46.3023195,2.8159135 C46.3934928,2.89978584 46.4811593,2.98825392 46.567657,3.07901988 C48.5594409,5.20914754 48.5430764,8.48821137 46.5290837,10.5988071 L32.6649117,24.8065518 L51.0374819,43.4066795 C53.0643324,45.502339 53.1040746,48.7825518 51.1263173,50.9253178 C49.2958399,52.9152752 46.1690664,53.0692326 44.1433847,51.2688497 C44.0498738,51.1849773 43.9587006,51.0988071 43.8722029,51.0080412 L43.8722029,51.0080412 Z" id="Stroke-16"></path>
                        <path d="M9.72795363,5.67389222 C7.52810778,5.69342413 5.76075023,7.4616369 5.78062131,9.62393477 C5.79932351,11.7862326 7.59824102,13.5234241 9.79925576,13.5038922 C11.9979327,13.4855092 13.7652903,11.7172965 13.7465881,9.55384967 L13.7465881,9.54350924 C13.7220414,7.38580711 11.9242928,5.6543603 9.72795363,5.67389222 L9.72795363,5.67389222 Z M9.89042896,19.2232965 C4.48432532,19.2784454 0.0565803286,15.0147433 0.000473739459,9.7009135 C-0.0521261879,4.39512626 4.28210782,0.0521475377 9.68002925,0.000445410014 C15.0779507,-0.0501077815 19.4963446,4.2089986 19.5489445,9.51478584 C19.57466,12.0562326 18.5729236,14.5046156 16.7669928,16.3222326 C14.9622308,18.1547858 12.4841898,19.1991688 9.89042896,19.2232965 Z" id="Stroke-18"></path>
                    </g>
                </g>
                <g filter="url(#filter-1)" fill="#87C02A" id="Logo/K/lines">
                    <g transform="translate(78.376453, 77.000000)">
                        <g id="Group-2" fill="none" stroke="#FEFEFE">
                            <path d="M10.2107041,53.2668944 C7.3796591,53.2953433 5.05824897,51.0664071 5.02201347,48.2836837 L4.70407613,21.6122795 C6.22830513,22.6072582 8.02137821,23.1311731 9.85185568,23.113939 C11.6823332,23.0886624 13.4613796,22.5245348 14.9622308,21.493939 L15.2801682,48.1653433 C15.3093904,50.9480667 13.0429179,53.2310029 10.2107041,53.2668944 Z" id="Stroke-14"></path>
                            <path d="M43.8722029,51.0080412 L21.8421845,28.7025943 C19.7884495,26.5219135 19.7767606,23.1578284 21.8129623,20.9622114 L39.3123736,3.0319135 C41.1814244,1.0752752 44.3105356,0.978764559 46.3023195,2.8159135 C46.3934928,2.89978584 46.4811593,2.98825392 46.567657,3.07901988 C48.5594409,5.20914754 48.5430764,8.48821137 46.5290837,10.5988071 L32.6649117,24.8065518 L51.0374819,43.4066795 C53.0643324,45.502339 53.1040746,48.7825518 51.1263173,50.9253178 C49.2958399,52.9152752 46.1690664,53.0692326 44.1433847,51.2688497 C44.0498738,51.1849773 43.9587006,51.0988071 43.8722029,51.0080412 L43.8722029,51.0080412 Z" id="Stroke-16"></path>
                            <path d="M9.72795363,5.67389222 C7.52810778,5.69342413 5.76075023,7.4616369 5.78062131,9.62393477 C5.79932351,11.7862326 7.59824102,13.5234241 9.79925576,13.5038922 C11.9979327,13.4855092 13.7652903,11.7172965 13.7465881,9.55384967 L13.7465881,9.54350924 C13.7220414,7.38580711 11.9242928,5.6543603 9.72795363,5.67389222 L9.72795363,5.67389222 Z M9.89042896,19.2232965 C4.48432532,19.2784454 0.0565803286,15.0147433 0.000473739459,9.7009135 C-0.0521261879,4.39512626 4.28210782,0.0521475377 9.68002925,0.000445410014 C15.0779507,-0.0501077815 19.4963446,4.2089986 19.5489445,9.51478584 C19.57466,12.0562326 18.5729236,14.5046156 16.7669928,16.3222326 C14.9622308,18.1547858 12.4841898,19.1991688 9.89042896,19.2232965 Z" id="Stroke-18"></path>
                        </g>
                    </g>
                </g>
                <g id="Logo/K/small" transform="translate(1.023619, 1.000000)">
                    <path d="M10.2117499,53.4255766 C7.37953603,53.4540255 5.05929479,51.2250894 5.02305928,48.442366 L4.70512194,21.7709617 C6.22935095,22.7659404 8.02242403,23.2898553 9.85173261,23.2726213 C11.683379,23.2473447 13.4624254,22.683217 14.9621078,21.6526213 L15.2800451,48.3240255 C15.3104362,51.1067489 13.0427949,53.3896851 10.2117499,53.4255766" id="Fill-1" fill="#FEFEFE"></path>
                    <path d="M43.8732487,51.1667234 L21.8432303,28.8612766 C19.7894953,26.6805957 19.7766376,23.3165106 21.8140081,21.1208936 L39.3134195,3.19059574 C41.1813013,1.23395745 44.3115814,1.13744681 46.3021965,2.97459574 C46.3933697,3.05846809 46.4822051,3.14693617 46.5675339,3.23770213 C48.5604867,5.36782979 48.5429534,8.64689362 46.5289606,10.7574894 L32.6647886,24.965234 L51.0373588,43.5653617 C53.0653782,45.6610213 53.1039515,48.941234 51.1273631,51.084 C49.2957168,53.0739574 46.1689433,53.2279149 44.1432617,51.4275319 C44.0497507,51.3436596 43.9597464,51.2574894 43.8732487,51.1667234 Z" id="Fill-3" fill="#FEFEFE"></path>
                    <g id="Group-7" stroke-width="1">
                        <mask id="mask-3" fill="white">
                            <use xlink:href="#path-2"></use>
                        </mask>
                        <g id="Clip-6"></g>
                        <path d="M9.72888256,5.83257447 C7.52903671,5.85210638 5.76051026,7.62031915 5.78038135,9.78261702 C5.80025243,11.9449149 7.59916995,13.6821064 9.79901579,13.6625745 C11.9976928,13.6441915 13.7662192,11.8759787 13.747517,9.71253191 L13.747517,9.70219149 C13.7218015,7.54448936 11.9240529,5.81304255 9.72888256,5.83257447 Z M9.890189,19.3819787 C4.48408536,19.4371277 0.0563403666,15.1734255 0.000233777455,9.85959574 C-0.0511972626,4.55380851 4.28186786,0.210829787 9.67978929,0.15912766 C15.0788796,0.108574468 19.4961046,4.36768085 19.5487045,9.67346809 C19.5744201,12.2149149 18.5738526,14.6632979 16.7667528,16.4809149 C14.9631598,18.3134681 12.4851187,19.3578511 9.890189,19.3819787 L9.890189,19.3819787 Z" id="Fill-5" fill="#FEFEFE" mask="url(#mask-3)"></path>
                    </g>
                </g>
            </g>
        </g>
    </g>
</svg>