<?xml version="1.0" encoding="UTF-8"?>
<svg width="126px" height="126px" viewBox="0 0 126 126" version="1.1" xmlns="http://www.w3.org/2000/svg" xmlns:xlink="http://www.w3.org/1999/xlink">
    <title>Logo/Of</title>
    <g id="Symbols" stroke="none" stroke-width="1" fill="none" fill-rule="evenodd">
        <g id="Logo/Of" transform="translate(-3.000000, -3.000000)">
            <g transform="translate(-0.000000, 0.000000)">
                <path d="M92.8321395,86.5183117 C92.9186122,86.4434718 93.4060038,86.5183117 93.5171829,86.5183117 L93.5171829,86.5183117 L94.8255036,86.5183117 C95.763227,86.5183117 96.8244828,86.3425514 97.6139672,86.9877616 C98.1968157,87.4549437 98.418051,88.2112798 98.5617978,88.9154547 C98.6606238,89.3656277 98.8156008,89.8078632 98.9413793,90.2557683 L98.9413793,90.2557683 L99.7623083,93.1903975 L101.181808,98.2851769 L102.706872,95.308592 L104.474509,91.8625572 L105.085433,90.6673875 C105.759246,89.3497526 106.817133,87.8631611 108.360165,87.5796768 C108.665627,87.52298 108.972212,87.4821582 109.281043,87.4560777 C109.407944,87.4447383 110.243473,87.3313446 110.299624,87.4186577 L110.299624,87.4186577 L112.266035,90.6855305 C112.88819,89.6479781 114.232447,87.4107202 114.232447,87.4107202 C115.431834,87.3630948 116.748016,87.449274 117.836225,88.0173765 C118.924433,88.585479 119.537603,89.7352912 120.069915,90.7807812 L120.069915,90.7807812 L121.089619,92.7776444 L124.199267,98.8566812 L125.832141,102.049848 L125.81305,102.049848 C125.929844,102.290243 125.993856,102.543111 126.015194,102.794845 C126.40039,102.944524 126.755265,103.172446 127.05062,103.475207 C128.05011,104.536572 128,106.119548 128,106.295308 C127.962514,106.717133 127.594163,107.0301 127.176399,106.99268 C126.782218,106.957528 126.479002,106.620748 126.483494,106.221603 C126.509324,105.611544 126.321779,105.010558 125.952305,104.527501 C125.845618,104.422044 125.718716,104.343803 125.587323,104.278034 C125.413254,104.50709 125.195388,104.705529 124.926986,104.851807 C124.429487,105.125085 123.870222,105.171577 123.363739,105.029835 C123.280635,105.244149 123.233468,105.469802 123.235714,105.702259 L123.235714,105.702259 L123.235714,127.004402 C123.235714,127.42736 122.895439,127.770943 122.476552,127.770943 L122.476552,127.770943 L122.473182,127.770943 C122.052049,127.769809 121.711774,127.42736 121.711774,127.003268 L121.711774,127.003268 L121.711774,105.748751 C121.698297,105.160237 121.848782,104.587599 122.128415,104.081863 C122.111569,104.053515 122.089109,104.028568 122.072264,104.00022 L122.072264,104.00022 L118.415704,96.8450768 L118.415704,98.7931807 L119.893601,109.927309 C119.902585,109.990809 119.9082,110.055444 119.9082,110.11781 C119.920553,110.984138 119.23551,111.696251 118.377521,111.709858 L118.377521,111.709858 L118.377521,125.317103 C118.396613,126.725453 117.320757,127.903614 115.92821,127.99773 C115.887781,127.998864 115.847353,127.999999 115.806924,127.999999 C114.384055,128.001132 113.228465,126.836579 113.228465,125.398747 L113.228465,125.398747 L113.228465,112.569382 C113.227342,112.435578 113.195898,112.304041 113.135254,112.186112 L113.135254,112.186112 L111.37211,112.186112 C111.310344,112.304041 111.277776,112.434444 111.27553,112.569382 L111.27553,112.569382 L111.27553,125.397613 C111.27553,125.439568 111.274407,125.481524 111.272161,125.52348 C111.203657,126.959044 109.996408,128.065767 108.575785,127.996597 C107.18773,127.90248 106.110752,126.731123 106.125351,125.326175 L106.125351,125.326175 L106.125351,111.698519 C106.063585,111.697385 105.999573,111.692849 105.936683,111.683778 C105.087679,111.566982 104.4936,110.77436 104.610394,109.918237 L104.610394,109.918237 L106.088291,98.7818413 L106.088291,96.9822832 L102.50922,104.947057 C102.495744,104.975406 102.481145,105.004888 102.464299,105.033237 C101.908403,106.063985 100.630404,106.44272 99.6084543,105.881421 C99.3097305,105.715867 99.0738959,105.48341 98.8919663,105.216934 C98.7560806,105.033237 98.6404094,104.827994 98.5685359,104.596671 L98.5685359,104.596671 L96.2023286,96.119357 L96.2023286,97.7465568 L96.1652688,125.217317 C96.1652688,125.258138 96.1641458,125.300094 96.1618998,125.340916 C96.0945185,126.77648 94.8861468,127.882069 93.466647,127.814033 C92.0763457,127.72105 91.0004906,126.548559 91.0150899,125.141343 L91.0150899,125.141343 L91.0150899,108.794506 C91.0049827,108.315984 90.613048,107.936115 90.1391327,107.945187 C89.6640944,107.955392 89.2878821,108.35227 89.2979892,108.831926 L89.2979892,108.831926 L89.297147,125.279116 L89.297147,125.279116 L89.2946202,125.340916 C89.2261158,126.77648 88.0188672,127.882069 86.5982443,127.814033 C85.2090661,127.72105 84.133211,126.548559 84.1478103,125.141343 L84.1478103,125.141343 L84.1118736,99.5892045 L83.1763963,104.759958 C82.9663912,105.914306 81.8703217,106.678579 80.7259622,106.467667 C79.5816028,106.255621 78.825809,105.148898 79.0346911,103.993416 L79.0346911,103.993416 L79.1166717,103.539841 L79.9701684,98.8317346 L81.1403574,92.3739628 L81.5985503,89.7976578 C81.7759878,88.8508203 81.7883411,87.7520352 82.5475039,87.0671372 C83.0919968,86.5758808 83.7024224,86.5230353 84.3651736,86.5184025 L87.5573051,86.5183117 L90.1829306,88.8417488 Z M112.302309,74.00679 C113.722932,74.00679 114.874029,75.0636194 114.874029,76.3699149 C114.87066,76.9402853 114.651671,77.4891108 114.260859,77.90073 L114.260859,77.90073 C115.26821,78.3701799 116.073417,79.1854807 116.538348,80.1992205 C117.620941,82.5612114 116.60236,85.362036 114.263105,86.4551514 C111.922728,87.5482668 109.148863,86.5197858 108.06627,84.1577949 C106.9848,81.79467 108.004504,78.9938453 110.343759,77.90073 C109.952947,77.4891108 109.733958,76.9402853 109.730589,76.3699149 C109.730589,75.0658873 110.881686,74.00679 112.302309,74.00679 Z M94.7620528,79.9931841 C94.82045,80.2959453 94.8508006,80.6032423 94.8508006,80.9128071 C94.8518946,81.2257737 94.82045,81.5387404 94.7598068,81.8449034 C94.2533239,84.3973958 91.7939057,86.05181 89.2671061,85.5404043 C86.7391836,85.0289987 85.1006945,82.5456765 85.6071774,79.9931841 L85.6071774,79.9931841 Z M87.365272,74.0008919 L87.4996941,74.0139338 L92.8688623,74.0139338 C93.1844315,73.9674424 93.5044928,74.0502198 93.7594188,74.2429891 C93.972793,74.4584372 94.1333851,74.7203766 94.228842,75.0095306 C94.3995413,75.4812484 94.5253198,75.9677074 94.6084234,76.4632379 C94.6859119,76.9292861 94.7521702,77.4032718 94.7982142,77.8772575 L94.7982142,77.8772575 L96.5894343,77.8772575 C96.9690157,77.8693199 97.2767237,78.1811526 97.2767237,78.5644234 C97.2767237,78.9465602 96.9678927,79.2572589 96.5894343,79.2561281 L96.5894343,79.2561281 L83.7813682,79.2561281 C83.4029098,79.2561281 83.0963248,78.9465602 83.0952018,78.5644234 C83.0952018,78.1811526 83.4017868,77.8693199 83.7813682,77.8693199 L83.7813682,77.8693199 L85.5748344,77.8693199 C85.6152632,77.3942003 85.6781524,76.9224825 85.7646251,76.4553004 C85.8454827,75.9597699 85.9723842,75.4733109 86.1442065,75.001593 C86.2385404,74.7124391 86.3991325,74.4504996 86.6125067,74.2350516 C86.8674327,74.0456841 87.186371,73.9651745 87.4996941,74.0139338 Z" id="Combined-Shape" fill="#BABAB9"></path>
                <path d="M17.8321467,16.0336508 C17.9186194,15.9579365 18.4060112,16.0336508 18.5171904,16.0336508 L18.5171904,16.0336508 L19.8255118,16.0336508 C20.7632356,16.0336508 21.824492,15.855837 22.6128538,16.5085857 C23.1957026,16.9812262 23.418061,17.7463991 23.5618079,18.4588014 C23.6606339,18.9142341 23.815611,19.3616366 23.9413896,19.8147749 L23.9413896,19.8147749 L24.7623191,22.7836916 L26.1818196,27.9379971 L27.7068843,24.9266346 L29.4745219,21.4403371 L30.0854462,20.2312034 C30.7592597,18.8981735 31.817147,17.3942131 33.36018,17.1074166 C33.6656422,17.0500573 33.9722274,17.0087587 34.2810586,16.9823734 C34.4079601,16.9709015 35.2434889,16.8561829 35.298517,16.9445163 L35.298517,16.9445163 L37.2660526,20.2495583 C37.8882071,19.1998834 39.2324652,16.936486 39.2324652,16.936486 C40.4318533,16.8883042 41.7480358,16.9754903 42.8362447,17.5502303 C43.9244536,18.1249704 44.5376239,19.2882167 45.0699366,20.3459219 L45.0699366,20.3459219 L46.0896411,22.366116 L49.1981676,28.5161787 L50.8310425,31.7466537 L50.8130741,31.7466537 C50.9298685,31.9898571 50.9938808,32.2456795 51.0152182,32.5003548 C51.4004149,32.6517833 51.7541671,32.8823676 52.050645,33.1886662 C52.9187903,34.1223756 52.9949665,35.4551062 53.0000685,35.903805 L53,36.0417171 C52.9625394,36.4684702 52.594188,36.7850935 52.1764236,36.7472363 C51.7811196,36.7116736 51.4790265,36.3709594 51.4835186,35.96715 C51.5093481,35.3499641 51.3206803,34.7419557 50.9523289,34.2532545 C50.8445188,34.1465663 50.7187402,34.0674105 50.5873466,34.0008737 C50.4132781,34.2326052 50.1942887,34.4333627 49.9270093,34.5813497 C49.4295103,34.8578214 48.870245,34.904856 48.3637619,34.7614578 C48.2806582,34.9782759 48.2334912,35.2065659 48.2346143,35.441739 L48.2346143,35.441739 L48.2346143,56.9927701 C48.2346143,57.4206704 47.8954614,57.7682676 47.476574,57.7682676 L47.476574,57.7682676 L47.4720819,57.7682676 C47.0520715,57.7671205 46.7117956,57.4206704 46.7117956,56.9916229 L46.7117956,56.9916229 L46.7117956,35.4887736 C46.6983194,34.8933842 46.8488044,34.3140554 47.128437,33.8024106 C47.1115917,33.7737309 47.0891312,33.7484928 47.0722859,33.7198132 L47.0722859,33.7198132 L43.4157243,26.4810712 L43.4157243,28.4519363 L44.8936221,39.716153 C44.9026062,39.7803954 44.9070983,39.845785 44.9082213,39.9088802 C44.9194516,40.7853301 44.2355308,41.5057627 43.3775416,41.519529 L43.3775416,41.519529 L43.3775416,55.2857577 C43.3966329,56.7105624 42.3207773,57.9024884 40.9282293,57.9977048 C40.8878005,57.998852 40.8462486,58 40.8069428,58 C39.3840732,58.0011463 38.228483,56.8229866 38.22736,55.3683551 L38.22736,55.3683551 L38.22736,42.3890957 C38.22736,42.2537278 38.1959153,42.1206543 38.1352721,42.001347 L38.1352721,42.001347 L36.3710036,42.001347 C36.3103604,42.1206543 36.2777927,42.2525806 36.2744237,42.3890957 L36.2744237,42.3890957 L36.2744237,55.3672079 C36.2744237,55.4096538 36.2733006,55.4520997 36.2721776,55.4945455 C36.2036732,56.9468827 34.9953009,58.0665359 33.5758004,57.9965576 C32.1866214,57.9013412 31.1107658,56.7162983 31.1253651,55.2949352 L31.1253651,55.2949352 L31.1253651,41.5080571 C31.0624758,41.5069099 30.9995866,41.5023212 30.9366973,41.4931437 C30.0865692,41.3749836 29.4924902,40.5731007 29.6104076,39.7069755 L29.6104076,39.7069755 L31.0883053,28.4404645 L31.0883053,26.6198807 L27.5092323,34.6777133 C27.4957561,34.7063929 27.4800338,34.7362197 27.4643114,34.7648994 C26.9072922,35.8076912 25.6292925,36.1908512 24.608465,35.6229943 C24.309741,35.4555052 24.0727832,35.2203321 23.8919766,34.9507435 C23.7560908,34.7648994 23.6404195,34.5572588 23.5685461,34.3232329 L23.5685461,34.3232329 L21.2012144,25.7468724 L21.2012144,27.3930839 L21.1652777,55.1848054 C21.1652777,55.2261041 21.1641547,55.2685499 21.1619087,55.3098486 C21.0945273,56.7621858 19.886155,57.8806918 18.4666544,57.8118607 C17.0752294,57.7177915 16.0004968,56.5316014 16.0150961,55.1079439 L16.0150961,55.1079439 L16.0150961,38.5701145 C16.0049889,38.0860021 15.613054,37.7016949 15.1391385,37.7108723 C14.6640999,37.721197 14.2878874,38.122712 14.2979946,38.6079716 L14.2979946,38.6079716 L14.2979946,55.1848054 C14.2968716,55.2261041 14.2968716,55.2685499 14.2946255,55.3098486 C14.2261211,56.7621858 13.0188718,57.8806918 11.5982483,57.8118607 C10.2079463,57.7177915 9.13209065,56.5316014 9.14781297,55.1079439 L9.14781297,55.1079439 L9.11075322,29.2572607 L8.17639843,34.4884276 C7.9663932,35.6562627 6.87032315,36.4294659 5.72596313,36.2160893 C4.58160311,36.0015656 3.82580891,34.8819123 4.03469111,33.7129301 L4.03469111,33.7129301 L4.11554874,33.2540558 L4.96904591,28.4909406 L6.14035847,21.9577179 L6.59855169,19.3513119 C6.77598926,18.3934118 6.78834251,17.2817889 7.54750578,16.5888887 C8.09104871,16.0918925 8.70213248,16.0384296 9.3651089,16.0337427 L12.5573096,16.0336508 L15.1829364,18.3842343 Z M37.4996683,4 C38.8690406,4 39.9786111,5.06623578 39.9786111,6.38415811 C39.9753636,6.9596051 39.7642746,7.51331553 39.3875619,7.92859835 L39.3875619,7.92859835 C40.3585714,8.40222669 41.1347295,9.22478411 41.5828877,10.2475468 C42.6264252,12.6305608 41.6445906,15.4563145 39.3886444,16.5591592 C37.1337806,17.6620039 34.4599864,16.6243689 33.4164489,14.2413548 C32.3739938,11.8571967 33.3558284,9.03144308 35.6117747,7.92859835 C35.235062,7.51331553 35.0239729,6.9596051 35.0207254,6.38415811 C35.0207254,5.06852384 36.1302959,4 37.4996683,4 Z M19.9144416,10 C19.9696574,10.322087 20,10.6489992 20,10.9783241 C20.0010546,11.3112679 19.9707401,11.6442118 19.9122763,11.9699177 C19.4229129,14.68534 17.0529646,16.4453584 14.6158912,15.9013088 C12.1799005,15.3572593 10.6002958,12.7154224 11.0885766,10 L11.0885766,10 Z M12.2150065,4.00084843 L12.3481153,4.01325483 L17.6485588,4.01325483 C17.95898,3.96902891 18.2760532,4.04777262 18.5277162,4.23114839 C18.7383592,4.43609778 18.8968958,4.68527309 18.9900222,4.96033674 C19.1585366,5.40906804 19.2838137,5.87182218 19.364745,6.34320577 C19.4423503,6.78654366 19.5077605,7.23743232 19.5521064,7.68832097 L19.5521064,7.68832097 L21.3203991,7.68832097 L21.3203991,7.6807702 C21.6962306,7.6807702 22,7.97740748 22,8.34200165 C22,8.70551715 21.695122,9.00107574 21.3203991,9 L21.3203991,9 L8.67738359,9 C8.30266075,9 8,8.70551715 8,8.34200165 C8,7.97740748 8.30266075,7.6807702 8.67738359,7.6807702 L8.67738359,7.6807702 L10.4478936,7.6807702 C10.4866962,7.22880287 10.5498891,6.78007158 10.635255,6.33565501 C10.7150776,5.86427141 10.8403548,5.40151727 11.0099778,4.95278598 C11.1031042,4.67772232 11.2605322,4.42854701 11.4722838,4.22359763 C11.7228381,4.0434579 12.037694,3.96687155 12.3481153,4.01325483 Z" id="Combined-Shape" fill="#FFFFFF"></path>
                <path d="M92.8321124,16.5183117 C92.9197081,16.4434718 93.405977,16.5183117 93.5182793,16.5183117 L93.5182793,16.5183117 L94.8266009,16.5183117 C95.763202,16.5183117 96.8244586,16.3425514 97.6139437,16.9877616 C98.1967925,17.4549437 98.418028,18.2112798 98.562898,18.9154547 C98.661724,19.3656277 98.8155781,19.8078632 98.9413567,20.2557683 L98.9413567,20.2557683 L99.7622864,23.1903975 L101.18291,28.2851769 L102.707975,25.308592 L104.47449,21.8625572 L105.085415,20.6673875 C105.759228,19.3497526 106.817116,17.8631611 108.361272,17.5796768 C108.665612,17.52298 108.972197,17.4821582 109.281028,17.4560777 C109.40793,17.4447383 110.244582,17.3313446 110.29961,17.4186577 L110.29961,17.4186577 L112.266023,20.6855305 C112.888177,19.6479781 114.232436,17.4107202 114.232436,17.4107202 C115.431824,17.3630948 116.748007,17.449274 117.836216,18.0173765 C118.924425,18.585479 119.537596,19.7352912 120.069909,20.7807812 L120.069909,20.7807812 L121.090736,22.7776444 L124.199264,28.8566812 L125.832139,32.049848 L125.813047,32.049848 C125.929842,32.2902427 125.993854,32.5431107 126.016315,32.7948447 C126.401511,32.9445244 126.755264,33.1724457 127.051742,33.4752069 C127.919887,34.3981331 127.995234,35.7154722 128.00012,36.1589892 L128,36.2953085 C127.963636,36.7171331 127.594162,37.0300997 127.176397,36.9926798 C126.782216,36.9575278 126.480123,36.6207484 126.483492,36.2216026 C126.509322,35.6115444 126.321777,35.0105578 125.952302,34.5275006 C125.845615,34.4220444 125.719837,34.3438028 125.58732,34.2780344 C125.414374,34.5070897 125.195385,34.7055287 124.928105,34.8518066 C124.429483,35.1250854 123.870218,35.1715768 123.363735,35.0298347 C123.280631,35.2441488 123.233464,35.4698023 123.23571,35.7022594 L123.23571,35.7022594 L123.23571,57.0044016 C123.23571,57.4273601 122.895434,57.7709431 122.476547,57.7709431 L122.476547,57.7709431 L122.473177,57.7709431 C122.052044,57.7698091 121.712891,57.4273601 121.712891,57.0032676 L121.712891,57.0032676 L121.712891,35.7487508 C121.698292,35.1602375 121.848777,34.5875992 122.128409,34.0818633 C122.112687,34.0535149 122.089104,34.0285682 122.073381,34.0002198 L122.073381,34.0002198 L118.415696,26.8450768 L118.415696,28.7931807 L119.894717,39.927309 C119.902578,39.9908095 119.908193,40.0554439 119.909316,40.1178104 C119.920547,40.9841384 119.235503,41.6962509 118.377513,41.7098581 L118.377513,41.7098581 L118.377513,55.3171032 C118.397728,56.7254531 117.320749,57.9036137 115.9282,57.9977305 C115.887771,57.9988644 115.847343,57.9999992 115.806914,57.9999992 C114.384044,58.0011323 113.228453,56.8365789 113.228453,55.3987467 L113.228453,55.3987467 L113.228453,42.5693824 C113.22733,42.4355778 113.195886,42.3040411 113.135242,42.1861117 L113.135242,42.1861117 L111.372097,42.1861117 C111.311453,42.3040411 111.277763,42.4344439 111.275517,42.5693824 L111.275517,42.5693824 L111.275517,55.3976127 C111.275517,55.4395684 111.274394,55.4815241 111.272148,55.5234797 C111.204766,56.9590441 109.996394,58.0657667 108.57577,57.9965965 C107.187713,57.9024798 106.111858,56.7311227 106.125334,55.3261747 L106.125334,55.3261747 L106.125334,41.6985187 C106.063568,41.6973848 105.999555,41.692849 105.936666,41.6837775 C105.087661,41.566982 104.493582,40.77436 104.610376,39.9182375 L104.610376,39.9182375 L106.088274,28.7818413 L106.088274,26.9822832 L102.5092,34.9470573 C102.495724,34.9754057 102.481125,35.0048881 102.465402,35.0332365 C101.908383,36.0639853 100.630383,36.4427203 99.6095553,35.8814215 C99.3097082,35.7158666 99.0738734,35.4834095 98.8919437,35.2169343 C98.7571809,35.0332365 98.6415096,34.8279939 98.5696361,34.5966707 L98.5696361,34.5966707 L96.2023039,26.119357 L96.2023039,27.7465568 L96.1652442,55.2173167 C96.1652442,55.2581385 96.1641212,55.3000941 96.1618751,55.3409159 C96.0944937,56.7764802 94.8861211,57.8820689 93.4666203,57.8140327 C92.076318,57.7210498 91.0004621,56.5485589 91.0161844,55.1413429 L91.0161844,55.1413429 L91.0161844,38.7945058 C91.0060772,38.3159844 90.6141422,37.9361155 90.1391036,37.945187 C89.6640649,37.9553924 89.2878522,38.3522704 89.2979594,38.8319258 L89.2979594,38.8319258 L89.2971172,55.2791163 L89.2971172,55.2791163 L89.2945904,55.3409159 C89.226086,56.7764802 88.0188364,57.8820689 86.5993355,57.8140327 C85.2090333,57.7210498 84.1331774,56.5485589 84.1488997,55.1413429 L84.1488997,55.1413429 L84.1118399,29.5892045 L83.1763619,34.7599577 C82.9663566,35.9143056 81.8702863,36.6785792 80.725926,36.4676669 C79.5826888,36.2556207 78.8257714,35.1488981 79.0346536,33.9934162 L79.0346536,33.9934162 L79.1166343,33.5398414 L79.9701317,28.8317346 L81.1403215,22.3739628 L81.5996378,19.7976578 C81.7759524,18.8508203 81.7894287,17.7520352 82.5474691,17.0671372 C83.0919624,16.5758808 83.7031925,16.5230353 84.3661916,16.5184025 L87.5583971,16.5183117 L90.1829015,18.8417488 Z M112.302296,4.00679002 C113.724043,4.00679002 114.874019,5.06361938 114.874019,6.36991491 C114.87065,6.94028527 114.652783,7.48911082 114.261971,7.90072998 L114.261971,7.90072998 C115.2682,8.37017994 116.07453,9.18548071 116.538339,10.1992205 C117.620933,12.5612114 116.602351,15.362036 114.263094,16.4551514 C111.923838,17.5482668 109.148848,16.5197858 108.066254,14.1577949 C106.985906,11.79467 108.004488,8.99384534 110.343745,7.90072998 C109.952933,7.48911082 109.733943,6.94028527 109.730574,6.36991491 C109.730574,5.06588726 110.881673,4.00679002 112.302296,4.00679002 Z M94.7620271,9.9931841 C94.8204243,10.2959453 94.8507459,10.6032423 94.851869,10.9128071 C94.851869,11.2257737 94.8204243,11.5387404 94.7609041,11.8449034 C94.2532978,14.3973958 91.7938777,16.05181 89.2670763,15.5404043 C86.7391519,15.0289987 85.1006615,12.5456765 85.6071449,9.9931841 L85.6071449,9.9931841 Z M87.3652407,4.00089189 L87.499663,4.01393382 L92.8688352,4.01393382 C93.1844046,3.9674424 93.5044661,4.05021981 93.7605153,4.24298911 C93.9727667,4.45843716 94.134482,4.72037663 94.2288159,5.00953058 C94.3995153,5.48124841 94.5264169,5.96770743 94.6083976,6.46323793 C94.6870092,6.92928608 94.7521445,7.40327178 94.7981885,7.87725749 L94.7981885,7.87725749 L96.5894099,7.87725749 C96.9689916,7.86931993 97.2766999,8.18115263 97.2766999,8.56442336 C97.2766999,8.94656016 96.9689916,9.25725893 96.5894099,9.25612808 L96.5894099,9.25612808 L83.7824573,9.25612808 C83.4028756,9.25612808 83.0962873,8.94656016 83.0962873,8.56442336 C83.0951673,8.18115263 83.4028756,7.86931993 83.7824573,7.86931993 L83.7824573,7.86931993 L85.5748018,7.86931993 C85.6152306,7.39420029 85.6781199,6.92248246 85.7645927,6.45530038 C85.8465733,5.95976987 85.9723519,5.47331085 86.1441744,5.00159302 C86.2396313,4.71243907 86.3991006,4.4504996 86.6124749,4.23505155 C86.8674011,4.04568406 87.1863396,3.96517452 87.499663,4.01393382 Z" id="Combined-Shape" stroke="#BABAB9"></path>
                <path d="M17.8321124,86.5183117 C17.9197081,86.4434718 18.405977,86.5183117 18.5182793,86.5183117 L18.5182793,86.5183117 L19.8266009,86.5183117 C20.763202,86.5183117 21.8244586,86.3425514 22.6139437,86.9877616 C23.1967925,87.4549437 23.418028,88.2112798 23.562898,88.9154547 C23.661724,89.3656277 23.8155781,89.8078632 23.9413567,90.2557683 L23.9413567,90.2557683 L24.7622864,93.1903975 L26.1829103,98.2851769 L27.7079753,95.308592 L29.4744902,91.8625572 L30.0854147,90.6673875 C30.7592284,89.3497526 31.8171159,87.8631611 33.3612723,87.5796768 C33.6656115,87.52298 33.9721968,87.4821582 34.281028,87.4560777 C34.4079296,87.4447383 35.2445816,87.3313446 35.2996098,87.4186577 L35.2996098,87.4186577 L37.2660228,90.6855305 C37.8881774,89.6479781 39.2324358,87.4107202 39.2324358,87.4107202 C40.4318242,87.3630948 41.748007,87.449274 42.8362161,88.0173765 C43.9244253,88.585479 44.5375957,89.7352912 45.0699086,90.7807812 L45.0699086,90.7807812 L46.0907363,92.7776444 L49.1992636,98.8566812 L50.8321388,102.049848 L50.8130474,102.049848 C50.9298418,102.290243 50.9938541,102.543111 51.0163146,102.794845 C51.4015114,102.944524 51.7552636,103.172446 52.0517416,103.475207 C52.9198871,104.398133 52.9952339,105.715472 53.0001197,106.158989 L53,106.295308 C52.9636362,106.717133 52.5941617,107.0301 52.1763972,106.99268 C51.7822161,106.957528 51.480123,106.620748 51.4834921,106.221603 C51.5093216,105.611544 51.3217768,105.010558 50.9523023,104.527501 C50.8456151,104.422044 50.7198365,104.343803 50.5873198,104.278034 C50.4143743,104.50709 50.1953849,104.705529 49.9281054,104.851807 C49.4294833,105.125085 48.8702179,105.171577 48.3637346,105.029835 C48.2806309,105.244149 48.2334639,105.469802 48.23571,105.702259 L48.23571,105.702259 L48.23571,127.004402 C48.23571,127.42736 47.8954341,127.770943 47.4765465,127.770943 L47.4765465,127.770943 L47.4731775,127.770943 C47.0520439,127.769809 46.712891,127.42736 46.712891,127.003268 L46.712891,127.003268 L46.712891,105.748751 C46.6982917,105.160237 46.8487768,104.587599 47.1284094,104.081863 C47.1126871,104.053515 47.0891036,104.028568 47.0733813,104.00022 L47.0733813,104.00022 L43.4156959,96.8450768 L43.4156959,98.7931807 L44.894717,109.927309 C44.9025782,109.990809 44.9081933,110.055444 44.9093163,110.11781 C44.9205465,110.984138 44.2355026,111.696251 43.3775131,111.709858 L43.3775131,111.709858 L43.3775131,125.317103 C43.3977275,126.725453 42.3207486,127.903614 40.9282003,127.99773 C40.8877715,127.998864 40.8473426,127.999999 40.8069138,127.999999 C39.3840439,128.001132 38.2284534,126.836579 38.2284534,125.398747 L38.2284534,125.398747 L38.2284534,112.569382 C38.2273303,112.435578 38.1958857,112.304041 38.1352425,112.186112 L38.1352425,112.186112 L36.3720966,112.186112 C36.3114534,112.304041 36.2777627,112.434444 36.2755166,112.569382 L36.2755166,112.569382 L36.2755166,125.397613 C36.2755166,125.439568 36.2743936,125.481524 36.2721476,125.52348 C36.2047662,126.959044 34.9963936,128.065767 33.5757697,127.996597 C32.1877135,127.90248 31.1118576,126.731123 31.1253338,125.326175 L31.1253338,125.326175 L31.1253338,111.698519 C31.0635676,111.697385 30.9995553,111.692849 30.936666,111.683778 C30.0876607,111.566982 29.4935816,110.77436 29.610376,109.918237 L29.610376,109.918237 L31.0882741,98.7818413 L31.0882741,96.9822832 L27.5092003,104.947057 C27.495724,104.975406 27.4811247,105.004888 27.4654024,105.033237 C26.908383,106.063985 25.630383,106.44272 24.6095553,105.881421 C24.3097082,105.715867 24.0738734,105.48341 23.8919437,105.216934 C23.7571809,105.033237 23.6415096,104.827994 23.5696361,104.596671 L23.5696361,104.596671 L21.2023039,96.119357 L21.2023039,97.7465568 L21.1652442,125.217317 C21.1652442,125.258138 21.1641212,125.300094 21.1618751,125.340916 C21.0944937,126.77648 19.8861211,127.882069 18.4666203,127.814033 C17.076318,127.72105 16.0004621,126.548559 16.0161844,125.141343 L16.0161844,125.141343 L16.0161844,108.794506 C16.0060772,108.315984 15.6141422,107.936115 15.1391036,107.945187 C14.6640649,107.955392 14.2878522,108.35227 14.2979594,108.831926 L14.2979594,108.831926 L14.2971172,125.279116 L14.2971172,125.279116 L14.2945904,125.340916 C14.226086,126.77648 13.0188364,127.882069 11.5993355,127.814033 C10.2090333,127.72105 9.13317736,126.548559 9.14889968,125.141343 L9.14889968,125.141343 L9.11183993,99.5892045 L8.17636189,104.759958 C7.96635662,105.914306 6.87028632,106.678579 5.72592603,106.467667 C4.58268877,106.255621 3.82577137,105.148898 4.03465362,103.993416 L4.03465362,103.993416 L4.11663429,103.539841 L4.97013165,98.8317346 L6.14032146,92.3739628 L6.59963781,89.7976578 C6.7759524,88.8508203 6.78942867,87.7520352 7.5474691,87.0671372 C8.09196241,86.5758808 8.70319251,86.5230353 9.36619157,86.5184025 L12.5583971,86.5183117 L15.1829015,88.8417488 Z M37.3022964,74.00679 C38.7240433,74.00679 39.8740187,75.0636194 39.8740187,76.3699149 C39.8706497,76.9402853 39.6527832,77.4891108 39.2619713,77.90073 L39.2619713,77.90073 C40.2681998,78.3701799 41.0745302,79.1854807 41.5383386,80.1992205 C42.6209326,82.5612114 41.6023509,85.362036 39.2630943,86.4551514 C36.9238377,87.5482668 34.1488483,86.5197858 33.0662542,84.1577949 C31.9859062,81.79467 33.004488,78.9938453 35.3437446,77.90073 C34.9529326,77.4891108 34.7339432,76.9402853 34.7305741,76.3699149 C34.7305741,75.0658873 35.8816725,74.00679 37.3022964,74.00679 Z M19.7620271,79.9931841 C19.8204243,80.2959453 19.8507459,80.6032423 19.851869,80.9128071 C19.851869,81.2257737 19.8204243,81.5387404 19.7609041,81.8449034 C19.2532978,84.3973958 16.7938777,86.05181 14.2670763,85.5404043 C11.7391519,85.0289987 10.1006615,82.5456765 10.6071449,79.9931841 L10.6071449,79.9931841 Z M12.3652407,74.0008919 L12.499663,74.0139338 L17.8688352,74.0139338 C18.1844046,73.9674424 18.5044661,74.0502198 18.7605153,74.2429891 C18.9727667,74.4584372 19.134482,74.7203766 19.2288159,75.0095306 C19.3995153,75.4812484 19.5264169,75.9677074 19.6083976,76.4632379 C19.6870092,76.9292861 19.7521445,77.4032718 19.7981885,77.8772575 L19.7981885,77.8772575 L21.5894099,77.8772575 C21.9689916,77.8693199 22.2766999,78.1811526 22.2766999,78.5644234 C22.2766999,78.9465602 21.9689916,79.2572589 21.5894099,79.2561281 L21.5894099,79.2561281 L8.78245732,79.2561281 C8.4028756,79.2561281 8.0962873,78.9465602 8.0962873,78.5644234 C8.09516734,78.1811526 8.4028756,77.8693199 8.78245732,77.8693199 L8.78245732,77.8693199 L10.5748018,77.8693199 C10.6152306,77.3942003 10.6781199,76.9224825 10.7645927,76.4553004 C10.8465733,75.9597699 10.9723519,75.4733109 11.1441744,75.001593 C11.2396313,74.7124391 11.3991006,74.4504996 11.6124749,74.2350516 C11.8674011,74.0456841 12.1863396,73.9651745 12.499663,74.0139338 Z" id="Combined-Shape-Copy" stroke="#FFFFFF"></path>
            </g>
        </g>
    </g>
</svg>