<?xml version="1.0" encoding="UTF-8"?>
<svg width="178px" height="195px" viewBox="0 0 178 195" version="1.1" xmlns="http://www.w3.org/2000/svg" xmlns:xlink="http://www.w3.org/1999/xlink">
    <title>Logo/old friends </title>
    <defs>
        <filter id="filter-1">
            <feColorMatrix in="SourceGraphic" type="matrix" values="0 0 0 0 1.000000 0 0 0 0 1.000000 0 0 0 0 1.000000 0 0 0 1.000000 0"></feColorMatrix>
        </filter>
        <polygon id="path-2" points="0.102029365 0.47755102 51.9315956 0.47755102 51.9315956 19.1549694 0.102029365 19.1549694"></polygon>
        <polygon id="path-4" points="0 0.0873172983 86.2253526 0.0873172983 86.2253526 149.564871 0 149.564871"></polygon>
        <polygon id="path-6" points="0.681745334 0.271678699 23.232149 0.271678699 23.232149 90.705392 0.681745334 90.705392"></polygon>
        <polygon id="path-8" points="0.0354213875 0.287084924 99.3537486 0.287084924 99.3537486 146.25 0.0354213875 146.25"></polygon>
    </defs>
    <g id="Symbols" stroke="none" stroke-width="1" fill="none" fill-rule="evenodd">
        <g id="Logo/old-friends-" transform="translate(-1.000000, -1.000000)">
            <g filter="url(#filter-1)">
                <g>
                    <path d="M128.704122,15.1304623 C130.076412,13.6346305 130.845726,11.6456077 130.857422,9.57393474 C130.857422,4.8317142 126.812025,1 121.81928,1 C116.825235,1 112.781138,4.84255356 112.781138,9.57393474 C112.791534,11.6456077 113.562147,13.6346305 114.933138,15.1304623 C106.711093,19.0963136 103.129623,29.2609246 106.93331,37.8335044 C110.738297,46.4060843 120.487275,50.1415991 128.70932,46.1757478 C136.931365,42.2085416 140.512835,32.0439306 136.709148,23.4713508 C135.075655,19.7886778 132.240108,16.8335969 128.70932,15.1304623 L128.704122,15.1304623 Z" id="Fill-1" fill="#FEFEFE"></path>
                    <path d="M25.1889303,21.8928571 C23.4083346,30.8976483 29.1686267,39.6587463 38.0521096,41.4633929 C46.9355925,43.2680394 55.5825291,37.4312592 57.3618251,28.426468 C57.5762764,27.3436801 57.6828522,26.2411333 57.6815642,25.1359519 C57.6789531,24.0478949 57.5749767,22.9624725 57.3683236,21.8928571 L25.1889303,21.8928571 Z" id="Fill-3" fill="#FEFEFE"></path>
                    <g id="Group-7" transform="translate(15.916201, 1.000000)">
                        <mask id="mask-3" fill="white">
                            <use xlink:href="#path-2"></use>
                        </mask>
                        <g id="Clip-6"></g>
                        <path d="M49.4220786,14.2560918 L42.8705771,14.2560918 C42.7043571,12.5700714 42.4665138,10.8880306 42.1786694,9.22854082 C41.8813653,7.46956122 41.4164898,5.73976531 40.7907997,4.06435714 C40.4448459,3.03894898 39.8596973,2.10639796 39.0799497,1.34364286 C38.1474959,0.6565 36.9758474,0.362010204 35.8231183,0.525173469 L16.1996956,0.525173469 C15.0537234,0.355377551 13.8874804,0.639255102 12.956378,1.31445918 C12.175279,2.07854082 11.5901305,3.00976531 11.2441766,4.0365 C10.6184866,5.71323469 10.1549625,7.44037755 9.85765836,9.20068367 C9.54548904,10.8615 9.30899714,12.5408878 9.16439923,14.2282347 L2.61019496,14.2282347 C1.22502808,14.2282347 0.102029365,15.3332347 0.102029365,16.6929286 C0.103380748,18.0526224 1.22637946,19.1549694 2.61019496,19.1549694 L49.4220786,19.1549694 C50.8072455,19.1549694 51.9315956,18.0526224 51.9315956,16.6929286 C51.9315956,15.3332347 50.8085969,14.2282347 49.42343,14.2282347 L49.4220786,14.2282347 L49.4220786,14.2560918 Z" id="Fill-5" fill="#FEFEFE" mask="url(#mask-3)"></path>
                    </g>
                    <g id="Group-10" transform="translate(1.000000, 45.770408)">
                        <mask id="mask-5" fill="white">
                            <use xlink:href="#path-4"></use>
                        </mask>
                        <g id="Clip-9"></g>
                        <path d="M86.0098325,61.4208499 L82.5027659,48.954281 L75.5990279,24.3357442 L72.6075876,13.7257259 C72.1511977,12.1054636 71.585759,10.5054544 71.2276478,8.87844096 C70.7012512,6.32922813 69.8934815,3.59368513 67.7730862,1.90456159 C64.9001187,-0.431316691 61.0335946,0.207336735 57.6221141,0.207336735 L52.8576194,0.207336735 C52.4537346,0.207336735 50.6833727,-0.0627069971 50.3643037,0.207336735 L40.7181877,8.60839723 L31.1609263,0.207336735 L20.8726334,0.207336735 C17.937737,0.207336735 15.2586343,0.0898677114 12.9174485,2.1948586 C10.1548763,4.66710897 10.1064101,8.6421527 9.46557951,12.0703579 L7.79349631,21.3868666 L3.53116507,44.7415988 L0.425290726,61.7665058 L0.126415952,63.4083717 C-0.635580095,67.5832478 2.12026073,71.5893466 6.28431333,72.3549206 C10.4483659,73.1191443 14.4427869,70.3538965 15.2047829,66.1776702 L18.6108783,47.4798422 L18.7441603,139.894208 C18.690309,144.979132 22.6066456,149.220168 27.6659762,149.553672 C32.8397409,149.804813 37.2353542,145.801415 37.4830702,140.613875 C37.4911479,140.464 37.4938404,140.314126 37.4938404,140.162902 L37.4938404,80.9031549 C37.4588371,79.1708243 38.829353,77.7368921 40.5566337,77.7004362 C42.2839145,77.6639803 43.7150131,79.0398531 43.7500165,80.7721837 C43.7513628,80.8153907 43.7513628,80.8585977 43.7500165,80.9031549 L43.7500165,139.894208 C43.6948189,144.979132 47.6125017,149.220168 52.6718324,149.553672 C57.8442508,149.804813 62.239864,145.801415 62.4889263,140.613875 C62.4956577,140.464 62.4996966,140.314126 62.4996966,140.162902 L62.6356711,40.8178633 L62.6356711,34.93091 L71.2505346,65.5903251 C72.5254643,69.6382806 76.8322229,71.8836942 80.8683787,70.6050372 C84.7227862,69.3830893 86.9697322,65.3702394 86.0004086,61.434352 L86.0098325,61.4208499 Z" id="Fill-8" fill="#FEFEFE" mask="url(#mask-5)"></path>
                    </g>
                    <g id="Group-13" transform="translate(155.134078, 103.474490)">
                        <mask id="mask-7" fill="white">
                            <use xlink:href="#path-6"></use>
                        </mask>
                        <g id="Clip-12"></g>
                        <path d="M3.40686034,90.704051 C1.90330726,90.704051 0.684819367,89.4717185 0.684819367,87.9510819 L0.684819367,11.6094902 C0.617199255,8.63392347 1.66729981,5.74283651 3.6243054,3.51954237 C5.83985847,1.29893012 8.88011173,0.124258429 11.9959404,0.28651331 C14.9274711,0.185942103 17.7688417,1.33111291 19.8305922,3.4444492 C23.4104804,7.25542746 23.231486,12.942394 23.231486,13.5739811 C23.1002235,15.089254 21.7769907,16.2102877 20.280067,16.0775337 C18.8626965,15.9514845 17.7807747,14.74463 17.7953594,13.3057913 C17.8855196,11.1146799 17.2106443,8.96111513 15.8913892,7.21922183 C14.8571993,6.20948691 13.447784,5.69188043 12.0131769,5.78976974 C10.3942719,5.65701575 8.79127747,6.20948691 7.58604842,7.31577019 C6.64201862,8.47837334 6.13287896,9.94000821 6.14481192,11.4432125 L6.14481192,87.9524228 C6.14481192,89.4730594 4.92764991,90.705392 3.42542272,90.705392 L3.41216387,90.705392 L3.40686034,90.704051 Z" id="Fill-11" fill="#FEFEFE" mask="url(#mask-7)"></path>
                    </g>
                    <g id="Group-16" transform="translate(71.603352, 49.750000)">
                        <mask id="mask-9" fill="white">
                            <use xlink:href="#path-8"></use>
                        </mask>
                        <g id="Clip-15"></g>
                        <path d="M98.6452448,52.9881193 L92.7516182,41.5095069 L81.5315732,19.6659289 L77.8480566,12.4876032 C75.9248873,8.73206422 73.7094389,4.60083716 69.7843583,2.55870413 C65.8579431,0.517912844 61.1094098,0.205286697 56.7786085,0.377029817 C56.7786085,0.377029817 51.9246412,8.41541284 49.6798314,12.1468005 L42.5810543,0.406548165 C42.3821978,0.0885550459 39.3633157,0.501811927 38.9055453,0.539380734 C37.7911481,0.630619266 36.6834239,0.779552752 35.5850419,0.986181193 C30.0130557,2.00456422 26.1934092,7.34470183 23.763089,12.0797133 L21.5583174,16.3732913 L15.1788937,28.7616055 L8.09212808,42.5252064 L2.62157207,53.1719381 L0.965324199,56.3921216 C-1.04459465,60.0953326 0.311366539,64.736422 3.99488315,66.7570872 C7.67839976,68.7777523 12.2934724,67.4145413 14.3047258,63.7099885 C14.3607794,63.6080161 14.4141637,63.5033601 14.4648787,63.3973624 L27.3825444,34.7752982 L27.3825444,41.2438417 L22.0441146,81.262672 C21.6237132,84.3459977 23.7684274,87.1878096 26.8353554,87.6118005 C27.060904,87.6426606 27.2877873,87.6601032 27.5160052,87.6627867 L27.5160052,136.636411 C27.4652901,141.688073 31.3463286,145.901147 36.3604489,146.236583 C41.4880108,146.486147 45.8441695,142.507878 46.0924065,137.35156 C46.0990796,137.201284 46.1030834,137.049667 46.1030834,136.89805 L46.1030834,90.7917317 C46.1137602,90.3113876 46.2338749,89.8417775 46.4527505,89.4151032 L52.8188282,89.4151032 C53.0363692,89.8417775 53.15248,90.3127294 53.1538146,90.7917317 L53.1538146,136.900734 C53.1564839,142.067787 57.3231284,146.252683 62.4613671,146.250001 C62.6068393,146.250001 62.7509769,146.245975 62.8964492,146.239266 C67.9225809,145.902489 71.8102924,141.669289 71.7408929,136.604209 L71.7408929,87.7016972 C74.8358476,87.6574197 77.3088752,85.0973739 77.2634986,81.9845298 C77.2608293,81.7564335 77.2434794,81.5283372 77.2114489,81.3029243 L71.873019,41.2827523 L71.873019,34.2842202 L85.0789599,59.9960436 C87.0822057,63.7005963 91.6959437,65.0731995 95.3834642,63.0592431 C98.9588776,61.1056651 100.368223,56.6631537 98.5785144,52.9881193 L98.6452448,52.9881193 Z" id="Fill-14" fill="#FEFEFE" mask="url(#mask-9)"></path>
                    </g>
                </g>
            </g>
        </g>
    </g>
</svg>