<?xml version="1.0" encoding="UTF-8"?>
<svg width="42px" height="42px" viewBox="0 0 42 42" version="1.1" xmlns="http://www.w3.org/2000/svg" xmlns:xlink="http://www.w3.org/1999/xlink">
    <title>ico/ai</title>
    <defs>
        <filter id="filter-1">
            <feColorMatrix in="SourceGraphic" type="matrix" values="0 0 0 0 0.070588 0 0 0 0 0.415686 0 0 0 0 0.396078 0 0 0 1.000000 0"></feColorMatrix>
        </filter>
    </defs>
    <g id="Symbols" stroke="none" stroke-width="1" fill="none" fill-rule="evenodd">
        <g id="ico/ai">
            <g filter="url(#filter-1)" id="illustrator">
                <g transform="translate(0.000000, -1.000000)">
                    <path d="M0,0.853698273 L0,42.8536983 L42,42.8536983 L42,0.853698273 L0,0.853698273 Z M39.5390625,40.3927608 L2.4609375,40.3927608 L2.4609375,3.31463577 L39.5390625,3.31463577 L39.5390625,40.3927608 Z" id="Shape" fill="#000000" fill-rule="nonzero"></path>
                    <polygon id="Path" fill="#000000" fill-rule="nonzero" points="18.04 18.8536983 16 23.8536983 20 23.8536983"></polygon>
                    <path d="M5,5.85369827 L5,37.8536983 L37,37.8536983 L37,5.85369827 L5,5.85369827 Z M21.9389388,29.690433 L20.6458776,26.2226779 L15.787102,26.2226779 L14.5136327,29.690433 L11.7315918,29.690433 L17.0409796,15.7802289 L19.4311837,15.7802289 L24.7209796,29.690433 L21.9389388,29.690433 Z M28.6196735,29.690433 L25.994449,29.690433 L25.994449,19.4243105 L28.6196735,19.4243105 L28.6196735,29.690433 Z M28.6196735,17.9941064 L25.994449,17.9941064 L25.994449,15.3883922 L28.6196735,15.3883922 L28.6196735,17.9941064 Z" id="Shape" fill="#000000" fill-rule="nonzero"></path>
                </g>
            </g>
        </g>
    </g>
</svg>