<?xml version="1.0" encoding="UTF-8"?>
<svg width="40px" height="40px" viewBox="0 0 40 40" version="1.1" xmlns="http://www.w3.org/2000/svg" xmlns:xlink="http://www.w3.org/1999/xlink">
    <title>ico/pr</title>
    <defs>
        <filter id="filter-1">
            <feColorMatrix in="SourceGraphic" type="matrix" values="0 0 0 0 0.070588 0 0 0 0 0.415686 0 0 0 0 0.396078 0 0 0 1.000000 0"></feColorMatrix>
        </filter>
    </defs>
    <g id="Symbols" stroke="none" stroke-width="1" fill="none" fill-rule="evenodd">
        <g id="ico/pr">
            <g filter="url(#filter-1)" id="premier">
                <g>
                    <path d="M4.6875,4.6875 L4.6875,35.3125 L35.3125,35.3125 L35.3125,4.6875 L4.6875,4.6875 Z M17.9985156,23.0375 L14.8485156,23.0375 L14.8485156,27.5 L12.2610156,27.5 L12.2610156,14.1875 L17.9047656,14.1875 C20.4878906,14.1875 22.1422656,16.5625 22.1422656,18.6125 C22.1422656,21.0286719 20.3055469,23.0375 17.9985156,23.0375 Z M26.2107031,21.55625 L26.2107031,27.5 L23.6982031,27.5 L23.6982031,17.675 L26.0044531,17.675 L26.0044531,19.775 C26.179375,19.4375 27.2794531,17.3242188 29.5482031,17.5625 L29.5482031,19.85 L29.5482031,19.85 C27.3380469,19.85 26.4732031,20.99375 26.2107031,21.55625 Z" id="Shape" fill="#000000" fill-rule="nonzero"></path>
                    <path d="M17.7360156,16.45625 L14.8485156,16.45625 L14.8485156,20.76875 L17.8485156,20.76875 C18.7561719,20.76875 19.5172656,19.921875 19.5172656,18.6125 C19.5172656,17.4875 18.8342187,16.45625 17.7360156,16.45625 Z" id="Path" fill="#000000" fill-rule="nonzero"></path>
                    <path d="M0,0 L0,40 L40,40 L40,0 L0,0 Z M37.65625,37.65625 L2.34375,37.65625 L2.34375,2.34375 L37.65625,2.34375 L37.65625,37.65625 Z" id="Shape" fill="#000000" fill-rule="nonzero"></path>
                </g>
            </g>
        </g>
    </g>
</svg>