<?xml version="1.0" encoding="UTF-8"?>
<svg width="40px" height="40px" viewBox="0 0 40 40" version="1.1" xmlns="http://www.w3.org/2000/svg" xmlns:xlink="http://www.w3.org/1999/xlink">
    <title>ico/ps</title>
    <defs>
        <filter id="filter-1">
            <feColorMatrix in="SourceGraphic" type="matrix" values="0 0 0 0 0.069456 0 0 0 0 0.415959 0 0 0 0 0.396973 0 0 0 1.000000 0"></feColorMatrix>
        </filter>
    </defs>
    <g id="Symbols" stroke="none" stroke-width="1" fill="none" fill-rule="evenodd">
        <g id="ico/ps">
            <g filter="url(#filter-1)" id="photoshop">
                <g>
                    <path d="M0,0 L0,40 L40,40 L40,0 L0,0 Z M37.65625,37.65625 L2.34375,37.65625 L2.34375,2.34375 L37.65625,2.34375 L37.65625,37.65625 Z" id="Shape" fill="#000000" fill-rule="nonzero"></path>
                    <path d="M16.465231,16.5354331 L13.5433071,16.5354331 L13.5433071,20.7874016 L16.5790722,20.7874016 C17.4975493,20.7874016 18.2677165,19.9524136 18.2677165,18.6614173 C18.2677956,17.5522081 17.5766056,16.5354331 16.465231,16.5354331 Z" id="Path" fill="#000000" fill-rule="nonzero"></path>
                    <path d="M4.72440945,4.72440945 L4.72440945,35.2755906 L35.2755906,35.2755906 L35.2755906,4.72440945 L4.72440945,4.72440945 Z M16.750274,23.0301784 L13.6078668,23.0301784 L13.6078668,27.4819219 L11.0266037,27.4819219 L11.0266037,14.2015105 L16.65675,14.2015105 C19.2336486,14.2015105 20.8840358,16.5707858 20.8840358,18.6158444 C20.8840358,21.0261924 19.0517443,23.0301784 16.750274,23.0301784 Z M26.1397742,27.66897 C23.8773502,27.66897 22.2678796,26.6402057 21.7067355,26.1538808 L22.6419757,24.5826772 C23.2405295,25.0067307 24.6177487,25.8733087 26.0836598,25.8733087 C27.033786,25.8733087 27.692273,25.4750522 27.692273,24.78843 C27.692273,23.9455448 26.3016487,23.6726105 25.5412205,23.4603889 C24.9052571,23.2858886 22.043422,22.8836574 22.043422,20.7294874 C22.043422,18.6555922 23.8481239,17.4935562 25.8966118,17.4935562 C28.0469629,17.4935562 29.1948144,18.366525 29.7310967,18.8403021 L28.7210373,20.3553913 C28.2221646,19.9812952 27.1117226,19.2705126 25.877907,19.2705126 C24.9684638,19.2705126 24.3815226,19.659027 24.3815226,20.3740961 C24.3815226,21.2664712 25.9463354,21.52148 26.3081175,21.6086132 C26.9814904,21.7833473 30.1051928,22.2601639 30.1051928,24.5639724 C30.1051928,27.2870802 27.3617435,27.66897 26.1397742,27.66897 Z" id="Shape" fill="#000000" fill-rule="nonzero"></path>
                </g>
            </g>
        </g>
    </g>
</svg>