<?xml version="1.0" encoding="UTF-8"?>
<svg width="42px" height="43px" viewBox="0 0 42 43" version="1.1" xmlns="http://www.w3.org/2000/svg" xmlns:xlink="http://www.w3.org/1999/xlink">
    <title>ico/rhino</title>
    <defs>
        <filter id="filter-1">
            <feColorMatrix in="SourceGraphic" type="matrix" values="0 0 0 0 0.070588 0 0 0 0 0.415686 0 0 0 0 0.396078 0 0 0 1.000000 0"></feColorMatrix>
        </filter>
        <polygon id="path-2" points="0 0.0148912213 41.9953669 0.0148912213 41.9953669 42 0 42"></polygon>
    </defs>
    <g id="Symbols" stroke="none" stroke-width="1" fill="none" fill-rule="evenodd">
        <g id="ico/rhino">
            <g filter="url(#filter-1)" id="Group-6">
                <g>
                    <g id="Group-3" transform="translate(0.000000, 0.853698)">
                        <mask id="mask-3" fill="white">
                            <use xlink:href="#path-2"></use>
                        </mask>
                        <g id="Clip-2"></g>
                        <path d="M15.4424242,25.8131613 C14.5148339,25.8863553 13.9451934,25.4467917 13.7454545,24.5334674 C14.5634519,24.3997785 15.3142956,24.9541326 15.4424242,25.8131613 M9.09455108,28.1546211 C9.54204748,26.9963535 9.59965899,25.6963882 9.40597554,24.3960342 C9.27584604,23.5218425 8.99806187,22.6684487 8.79591799,21.8035869 C8.74807626,21.5989123 8.62963022,21.3782992 9.00410504,21.28432 C11.8842777,20.5609616 14.3868532,19.1400964 16.7162921,17.3921017 C17.1071842,17.0987932 17.3305799,16.8688501 17.2794144,16.3092508 C17.0890547,14.230045 16.5083065,12.2862197 15.3790403,10.5066395 C14.5367237,9.17936484 13.4480475,8.08300504 11.9901338,7.29647549 C11.414623,11.9207017 9.88358705,16.0607452 6.10922734,19.1424288 C5.67230647,18.8333761 5.27124173,18.5716531 4.89656547,18.2783445 C4.56076691,18.0153581 4.45984604,17.7525661 4.80138561,17.3547822 C5.95794676,16.0074871 6.9376446,14.5460951 7.68034964,12.9416448 C8.69398993,10.7518408 9.09837842,8.48487081 8.65168777,6.1049702 C8.51893957,5.39803631 8.43181727,5.34536128 7.74470935,5.45246069 C6.0634,5.71476679 4.38178849,5.97542072 2.70007626,6.23490842 C1.88374532,6.36076481 1.59347194,6.70801182 1.7171554,7.49852602 C1.98355827,9.20113459 2.27181727,10.900536 2.55181727,12.6011037 C3.04373094,15.5894884 3.52869496,18.5789421 4.0406518,21.5641196 C4.08738561,21.8362415 4.26344317,22.1191511 4.4575295,22.3301428 C4.9574,22.873512 5.56967338,23.3303853 6.01374532,23.9097134 C7.08439281,25.3065736 8.08453669,26.7536791 9.09455108,28.1546211 M11.0436734,23.6686911 C10.8280331,24.8202528 10.6085655,25.9807556 10.3943353,27.142036 C10.2843496,27.7386633 10.2910978,28.2820325 10.9557453,28.6284048 C11.2748245,28.7947879 11.5343784,29.0647717 11.8315007,29.2739169 C14.1169252,30.8827406 16.466105,32.4070121 18.4835151,34.3518092 C19.1680043,35.0117049 20.0325799,35.4978312 20.8465942,36.0862949 C21.2362777,35.2842155 20.9210259,34.7438591 20.508882,34.2303262 C20.1838604,33.8253505 19.8433281,33.4318427 19.5096446,33.0331841 C19.548623,32.9980998 19.5876014,32.9630155 19.6264791,32.9277368 C19.9060763,33.1242477 20.1857741,33.3206615 20.5236878,33.558185 C20.5236878,33.1857667 20.5029396,32.9104377 20.5277165,32.638996 C20.5957022,31.8921185 21.1229683,31.5912294 21.8294144,31.8921185 C22.4092561,32.1390692 22.7955151,32.5783517 23.0496302,33.1241506 C23.4019468,33.8805523 23.1234576,34.6594042 22.3423784,35.0737098 C22.374105,34.9426053 22.4075439,34.837644 22.4240619,34.7301559 C22.4990978,34.2426689 22.3599036,33.8323479 21.9258029,33.5480776 C21.5512273,33.3027792 21.3279324,33.4146407 21.2991266,33.8445934 C21.2610547,34.4130366 21.6582921,34.7424013 22.0088964,35.1138478 C22.2935295,35.4155144 22.5514719,35.4130847 22.8865655,35.2114229 C23.6876878,34.7292812 24.1273281,34.0080609 24.3716734,33.1604011 C24.773846,31.7648044 25.5137309,30.5827261 26.7068532,29.6889028 C27.2607094,29.2740141 27.8177885,28.8574731 28.4090115,28.4958425 C30.4536158,27.2448592 32.4212705,25.909518 33.9465655,24.0578255 C34.7786086,23.0474757 35.4645079,21.9557808 36.0153424,20.6327823 C35.5188964,20.8359019 35.1100763,20.9439732 34.7678317,21.1533127 C33.2017453,22.1114734 31.640695,23.0787697 30.1038173,24.0798868 C28.5669396,25.0811011 27.0057885,26.0115637 25.1100475,26.2138086 C24.5306086,26.2756192 23.9319324,26.3503555 23.4271266,25.9516969 C23.1524647,25.734874 22.9877885,25.4987111 23.364882,25.2138577 C23.7070259,24.9555363 24.0330547,24.6776804 24.3700619,24.4129446 C25.1047094,23.8359489 25.5165511,23.1135624 25.5107094,22.1178877 C23.8122777,22.9363916 22.1556446,23.0854755 20.5396014,22.1177905 C18.9467237,21.1638088 18.2477309,19.6646114 17.9524216,17.7839573 C17.3674432,18.0737672 16.8061338,18.2558945 16.3683065,18.5890495 C15.4576014,19.2819885 14.4656158,19.7793885 13.3538748,20.0750296 C12.9669108,20.17795 12.5802489,20.2882565 12.2054719,20.4253865 C11.5717453,20.6572733 10.9533281,20.9485409 10.6508676,21.5725748 C10.1835295,22.5369555 10.190882,23.0757569 11.4325511,23.2435978 C11.6475871,23.2727537 11.8664504,23.2861655 12.0770547,23.3334952 C12.5191122,23.4326254 12.9570403,23.5494434 13.502436,23.6855044 C13.3083496,23.8528594 13.2360331,23.9169052 13.1619036,23.9789101 C12.6465223,24.4110009 12.6412849,24.6626165 13.136623,25.1143389 C13.4170259,25.3699391 13.6681194,25.6653858 13.9811554,25.8753084 C14.4419468,26.1844583 14.9271122,26.4747541 15.4385655,26.693132 C15.7816158,26.8396891 16.1054288,26.7371574 16.1297022,26.2691077 C16.1411842,26.0469396 16.1905367,25.8267152 16.2179324,25.6383679 C17.0267094,25.4918109 17.8087957,25.3268855 18.5987381,25.2133718 C19.3253281,25.1090908 20.0459755,25.1119092 20.6557309,25.7451758 C18.870177,25.2094844 18.2346374,25.416297 17.1544216,26.874579 C16.7558748,27.4125057 16.4147381,27.9907648 16.0050115,28.5201391 C15.3472129,29.3698399 14.6893137,29.5352511 13.7450691,29.0046134 C13.0570547,28.6179087 12.4677453,28.0707492 11.7948388,27.6547914 C11.3176302,27.3599279 11.221141,27.0169571 11.3320331,26.512754 C11.4530978,25.9619015 11.5261194,25.3970541 11.5638892,24.8347336 C11.5970259,24.3402492 11.5204791,23.8565525 11.0436734,23.6686911 M41.995418,35.6435137 C42.0000906,36.3510307 41.7304647,36.6693161 41.1005655,36.765725 C37.9352561,37.2503936 34.768436,37.7255379 31.6034288,38.2117615 C28.1249827,38.7461895 24.6485511,39.2937377 21.1700043,39.8269995 C17.2948245,40.4210028 13.4183353,41.0060649 9.54204748,41.5932652 C8.63406187,41.7307839 7.72688201,41.8765636 6.81547194,41.9887167 C6.22445036,42.0614121 5.83849353,41.7807378 5.74462302,41.2206525 C5.36541439,38.9599996 5.00272374,36.6968199 4.62975971,34.4350979 C4.2076446,31.8754025 3.77606187,29.3170676 3.3577741,26.7567891 C2.93636403,24.1770732 2.53106906,21.5949277 2.10996115,19.0152118 C1.67062302,16.3241204 1.22141439,13.6343895 0.775428777,10.9442699 C0.522320863,9.41708278 0.266090647,7.8902844 0.0134863309,6.36300009 C-0.0761539568,5.8205056 0.287644604,5.34983185 0.877860432,5.25925413 C3.86086763,4.80179773 6.84488201,4.35095001 9.82788921,3.89378518 C13.7183784,3.29744942 17.6077597,2.69450498 21.4985511,2.10001576 C24.4029971,1.65626265 27.3091554,1.22378316 30.2139036,0.781487842 C31.7982201,0.540271192 33.3811266,0.291571189 34.9640331,0.0416077632 C35.7264791,-0.0788061888 36.1515151,0.205464037 36.2749971,0.936402966 C36.8282489,4.21148753 37.3883496,7.48540585 37.9315295,10.7621426 C38.6440187,15.0603084 39.3422058,19.3607095 40.0476446,23.6599444 C40.6824791,27.5282547 41.3191266,31.3961763 41.9533568,35.2646811 C41.9794432,35.4237752 41.9890115,35.5853962 41.995418,35.6435137" id="Fill-1" fill="#000000" mask="url(#mask-3)"></path>
                    </g>
                </g>
            </g>
        </g>
    </g>
</svg>