<?xml version="1.0" encoding="UTF-8"?>
<svg width="42px" height="42px" viewBox="0 0 42 42" version="1.1" xmlns="http://www.w3.org/2000/svg" xmlns:xlink="http://www.w3.org/1999/xlink">
    <title>ico/xd</title>
    <defs>
        <filter id="filter-1">
            <feColorMatrix in="SourceGraphic" type="matrix" values="0 0 0 0 0.070588 0 0 0 0 0.415686 0 0 0 0 0.396078 0 0 0 1.000000 0"></feColorMatrix>
        </filter>
    </defs>
    <g id="Symbols" stroke="none" stroke-width="1" fill="none" fill-rule="evenodd">
        <g id="ico/xd">
            <g filter="url(#filter-1)" id="experience">
                <g transform="translate(0.000000, -1.000000)">
                    <path d="M0,0.853698273 L0,42.8536983 L42,42.8536983 L42,0.853698273 L0,0.853698273 Z M39.5390625,40.3927608 L2.4609375,40.3927608 L2.4609375,3.31463577 L39.5390625,3.31463577 L39.5390625,40.3927608 Z" id="Shape" fill="#000000" fill-rule="nonzero"></path>
                    <path d="M5,5.85369827 L5,37.8536983 L37,37.8536983 L37,5.85369827 L5,5.85369827 Z M18.8173061,29.690433 L15.5258776,24.7141064 L12.2148571,29.690433 L9.27608163,29.690433 L14.0760816,22.8332901 L9.11926531,15.7802289 L12.0580408,15.7802289 L15.5257959,20.9524738 L18.9739592,15.7802289 L21.8931429,15.7802289 L16.9364082,22.8332901 L21.7364082,29.690433 L18.8173061,29.690433 Z M31.9828571,29.8275758 C30.0872653,29.8275758 30.2588571,27.9075758 30.2588571,27.9075758 C29.8798367,28.5608003 28.7505306,29.8863513 26.6931429,29.8863513 C23.679102,29.8863513 21.8146939,27.3741064 21.8146939,24.5573717 C21.8146939,21.3639024 23.9648163,19.247984 26.3991837,19.247984 C28.4613878,19.247984 29.527102,20.6390044 29.8668571,21.2267595 L29.8668571,15.3883922 L32.4921633,15.3883922 L32.4921633,26.6732901 C32.4921633,26.9475758 32.8773061,27.4440656 33.0995102,27.4569636 L33.0995102,29.690433 L33.0996735,29.690433 C32.6422857,29.7816983 32.2700408,29.8275758 31.9828571,29.8275758 Z" id="Shape" fill="#000000" fill-rule="nonzero"></path>
                    <path d="M27.5184209,21.8536983 C25.8409289,21.8536983 25,23.5780634 25,24.9013173 C25,26.3558411 26.0324147,27.8536983 27.665482,27.8536983 C29.2110786,27.8536983 29.9141378,26.418857 30,26.1775078 L30,23.7965554 C29.9018061,23.5173491 29.0195162,21.8536983 27.5184209,21.8536983 Z" id="Path" fill="#000000" fill-rule="nonzero"></path>
                </g>
            </g>
        </g>
    </g>
</svg>