<?xml version="1.0" encoding="UTF-8"?>
<svg width="20px" height="20px" viewBox="0 0 20 20" version="1.1" xmlns="http://www.w3.org/2000/svg" xmlns:xlink="http://www.w3.org/1999/xlink">
    <title>email_g</title>
    <g id="Symbols" stroke="none" stroke-width="1" fill="none" fill-rule="evenodd">
        <g id="icon/email_g" fill="#27DCD2">
            <g id="email_g" transform="translate(-0.000000, 0.000000)">
                <path d="M10.002318,4.99978933 C8.22790262,4.99978933 6.45339587,4.99092684 4.67907186,5.0030785 C3.57354557,5.01057049 2.96970894,6.04547101 3.57098733,6.9698189 C3.86801757,7.42646522 4.28875712,7.84163146 4.738551,8.15245794 C6.00981487,9.03075746 7.34667939,9.81403654 8.61575048,10.695077 C9.58267484,11.3663416 10.4527514,11.3486167 11.4106306,10.6779003 C12.6887469,9.78297217 14.0253373,8.97200925 15.3171585,8.0959025 C15.6748556,7.85332628 15.9868699,7.52925175 16.2764081,7.20398947 C16.6554849,6.77804207 16.7901581,6.26959134 16.5354302,5.72834029 C16.2708348,5.16616647 15.7879665,4.99028728 15.1889723,4.99485557 C13.4601484,5.00810362 11.7312332,4.99951523 10.002318,4.99978933 M16.6356585,8.23377351 C15.9010774,8.71883459 15.18815,9.19229221 14.4722988,9.66154701 C13.6995268,10.1681704 12.9182578,10.6620026 12.1510591,11.176849 C10.3525231,12.3837913 9.62790091,12.3743806 7.81904062,11.1574794 C6.34320871,10.1646072 4.84965183,9.19823099 3.35801362,8.21632264 C3.3540849,8.28996348 3.34385192,8.39156226 3.34376056,8.49316104 C3.3428469,10.2060872 3.34010593,11.9190134 3.34449149,13.6319396 C3.34668426,14.514442 3.83786685,14.9973103 4.73453091,14.9980412 C8.25129227,15.0005994 11.7680536,15.0008735 15.284815,14.9978585 C16.1733475,14.9971275 16.6509166,14.5135283 16.6534748,13.614306 C16.6582258,11.9317133 16.6553021,10.2490292 16.6541144,8.56643642 C16.6541144,8.45195506 16.6416886,8.3374737 16.6356585,8.23377351 M19.9971893,10.0418115 C19.9972807,12.0429968 19.9989253,14.0442735 19.9968239,16.0454588 C19.9941743,18.3996816 18.4092516,19.9961164 16.0677286,19.9978524 C12.0198578,20.0005933 7.97189562,20.0008674 3.92402481,19.997761 C1.60945477,19.9959337 0.00589345146,18.3957529 0.0033352088,16.0802692 C-0.00123308166,12.032307 -0.000958984228,7.98443622 0.00324384299,3.93656541 C0.00561935403,1.61569112 1.60187141,0.00783561027 3.91223862,0.00454644114 C7.97518479,-0.00120960484 12.0383137,-0.00194053131 16.1014426,0.00491190438 C18.389882,0.00874926837 19.9921642,1.61843209 19.996367,3.90166367 C20.0000217,5.94834916 19.9971893,7.99512602 19.9971893,10.0418115"></path>
            </g>
        </g>
    </g>
</svg>