<?xml version="1.0" encoding="UTF-8"?>
<svg width="20px" height="20px" viewBox="0 0 20 20" version="1.1" xmlns="http://www.w3.org/2000/svg" xmlns:xlink="http://www.w3.org/1999/xlink">
    <title>FB_g</title>
    <defs>
        <filter id="filter-1">
            <feColorMatrix in="SourceGraphic" type="matrix" values="0 0 0 0 0.125490 0 0 0 0 0.698039 0 0 0 0 0.666667 0 0 0 1.000000 0"></feColorMatrix>
        </filter>
    </defs>
    <g id="Symbols" stroke="none" stroke-width="1" fill="none" fill-rule="evenodd">
        <g id="icon/FB_g">
            <g filter="url(#filter-1)" id="FB_g">
                <g>
                    <path d="M10.618,19.9735727 C8.19954545,19.9735727 5.82909091,20.0364818 3.46372727,19.9538455 C1.53963636,19.8866636 0.0494545455,18.2479364 0.0379090909,16.2927545 C0.0133636364,12.1279364 0.0136363636,7.96266364 0.0374545455,3.79775455 C0.0492727273,1.72757273 1.64981818,0.1123 3.71936364,0.0981181818 C7.88427273,0.0695727273 12.0494545,0.0722090909 16.2144545,0.0967545455 C18.3261818,0.1093 19.9173636,1.75066364 19.9218182,3.86439091 C19.9304545,7.98420909 19.9314545,12.1039364 19.9212727,16.2236636 C19.916,18.3512091 18.2869091,19.9648455 16.1560909,19.9825727 C15.3754545,19.9891182 14.5947273,19.9836636 13.7899091,19.9836636 L13.7899091,12.3064818 L16.3258182,12.3064818 C16.4574545,11.2971182 16.5846364,10.3225727 16.7187273,9.29393636 L13.8353636,9.29393636 C13.8353636,8.41175455 13.7922727,7.57420909 13.8510909,6.74393636 C13.8878182,6.22720909 14.3011818,5.96802727 14.8049091,5.9493 C15.4633636,5.92484545 16.1235455,5.9433 16.8081818,5.9433 L16.8081818,3.17157273 C15.9534545,3.15084545 15.098,3.07393636 14.2492727,3.12039091 C12.0517273,3.24084545 10.7966364,4.51784545 10.6733636,6.71339091 C10.6353636,7.39057273 10.6574545,8.07102727 10.6525455,8.75002727 C10.6512727,8.91148182 10.6523636,9.07293636 10.6523636,9.2763 L8.09318182,9.2763 L8.09318182,12.2739364 L10.618,12.2739364 L10.618,19.9735727 Z" id="Fill-3" fill="#14746F"></path>
                </g>
            </g>
        </g>
    </g>
</svg>