<?xml version="1.0" encoding="UTF-8"?>
<svg width="132px" height="132px" viewBox="0 0 132 132" version="1.1" xmlns="http://www.w3.org/2000/svg" xmlns:xlink="http://www.w3.org/1999/xlink">
    <title>icons</title>
    <defs>
        <polygon id="path-1" points="1.13626667 0.254608696 31.3722667 0.254608696 31.3722667 31.8060522 1.13626667 31.8060522"></polygon>
        <polygon id="path-3" points="0.9392 0.254608696 23.616 0.254608696 23.616 31.8060522 0.9392 31.8060522"></polygon>
        <polygon id="path-5" points="0 0.449679017 31.5509584 0.449679017 31.5509584 32 0 32"></polygon>
        <polygon id="path-7" points="1.0272 0.431066667 31.2645333 0.431066667 31.2645333 30.6666667 1.0272 30.6666667"></polygon>
        <polygon id="path-9" points="0.11592 0.450226087 27.59652 0.450226087 27.59652 32 0.11592 32"></polygon>
    </defs>
    <g id="Symbols" stroke="none" stroke-width="1" fill="none" fill-rule="evenodd">
        <g id="icons">
            <g>
                <g id="icon/k_06" fill="#FEFEFE">
                    <path d="M14.8706475,0.264228261 C15.4898475,-0.088076087 16.2578475,-0.088076087 16.8786475,0.264228261 L16.8786475,0.264228261 L30.7634475,8.15970652 C31.3810475,8.51040217 31.7554475,9.15388043 31.7491282,9.84883696 L31.7491282,9.84883696 L31.6242475,20.7445326 C31.6194475,21.1531413 31.5890475,21.5633587 31.5138475,21.9671413 C28.9485995,35.7585535 16.3921182,36.4577093 15.8908851,36.480159 L15.8600061,36.480159 C15.35865,36.4577093 2.79909549,35.7585535 0.233847485,21.9671413 C0.158647485,21.5633587 0.128247485,21.1531413 0.123447485,20.7445326 L0.123447485,20.7445326 L0.000121802324,9.84883696 C-0.00775251489,9.15388043 0.366647485,8.51040217 0.984247485,8.15970652 L0.984247485,8.15970652 Z M15.9138475,8.62783696 C12.8450475,8.68092391 10.3954475,11.2612717 10.4338475,14.399837 L10.4338475,14.399837 L10.4338475,16.4123152 L10.2962475,16.4123152 C9.48824749,16.4219674 8.84024749,17.0976196 8.84984749,17.9260978 L8.84984749,17.9260978 L8.84984749,26.3315326 C8.83704749,27.1584022 9.48344749,27.8388804 10.2898475,27.85175 L10.2898475,27.85175 L21.4514475,27.85175 C22.2594475,27.8437065 22.9074475,27.164837 22.8995208,26.3379674 C22.8978475,26.3363587 22.8978475,26.33475 22.8978475,26.3315326 L22.8978475,26.3315326 L22.8978475,17.9309239 C22.9106475,17.105663 22.2658475,16.4235761 21.4578475,16.4123152 L21.4578475,16.4123152 L21.4130475,16.4123152 L21.4130475,14.399837 C21.4482475,11.254837 18.9874475,8.67288043 15.9138475,8.62783696 Z M14.6791275,20.7858761 C14.9303275,20.1922674 15.5447275,19.8528326 16.1655275,19.9654413 C16.8199275,20.0957457 17.2951275,20.6780935 17.3031275,21.3617891 C17.3223275,21.8090065 17.1143275,22.2353109 16.7543275,22.4910935 C16.6535275,22.55705 16.5991275,22.6777022 16.6167275,22.799963 L16.6167275,22.799963 L16.6167275,24.6483543 C16.6359275,24.9025283 16.5063275,25.1438326 16.2839275,25.2644848 C15.9575275,25.4543109 15.5415275,25.3384848 15.3559275,25.0038761 C15.2967275,24.8960935 15.2663275,24.7722239 15.2663275,24.6483543 L15.2663275,24.6483543 L15.2663275,22.7983543 C15.2807275,22.6825283 15.2279275,22.5715283 15.1303275,22.5103978 C14.6071275,22.1114413 14.4215275,21.3987891 14.6791275,20.7858761 Z M15.8544875,11.1568674 C17.5616875,11.1134326 18.9808875,12.4936935 19.0240875,14.240737 C19.0256875,14.2938239 19.0256875,14.3469109 19.0240875,14.3999978 L19.0240875,14.3999978 L19.0240875,16.4124761 L12.8400875,16.4124761 L12.8407015,14.220365 C12.8919343,12.5544471 14.2061565,11.1988044 15.8544875,11.1568674 Z" id="Combined-Shape"></path>
                </g>
                <g id="icon/k_07" transform="translate(54.000000, 0.000000)" fill="#FEFEFE">
                    <path d="M6.68497255,9.472 C6.61297255,6.60452174 8.87320784,4.2226087 11.7320314,4.15026087 C14.5908549,4.07791304 16.9668549,6.34295652 17.0388549,9.21043478 C17.0416784,9.29808696 17.0416784,9.38573913 17.0388549,9.472 L17.0388549,12.7763478 L6.68497255,12.7763478 L6.68497255,9.472 Z M13.2369725,22.752 C13.0675608,22.8605217 12.9772078,23.0594783 13.0082667,23.2584348 L13.0082667,26.2928696 C13.0393255,26.7102609 12.820502,27.1081739 12.4506196,27.3029565 C11.9042667,27.6173913 11.2082667,27.4253913 10.8962667,26.8772174 C10.7960314,26.6991304 10.7437961,26.4973913 10.7480314,26.2928696 L10.7480314,23.2570435 C10.7706196,23.0678261 10.6802667,22.8827826 10.5179137,22.784 C9.64403137,22.130087 9.33203137,20.9586087 9.76544314,19.9526957 C10.1819137,18.9787826 11.212502,18.4222609 12.2515608,18.605913 C13.348502,18.8201739 14.1433255,19.7773913 14.1560314,20.8973913 C14.1856784,21.6333913 13.8397961,22.3332174 13.2369725,22.752 L13.2369725,22.752 Z M2.65438431,9.472 L2.65438431,12.7763478 L2.42426667,12.7763478 C1.07038431,12.7902609 -0.0138509806,13.901913 0.000266666412,15.2598261 L0.000266666412,15.2695652 L0.000266666412,29.056 C-0.0194980395,30.413913 1.06191373,31.5297391 2.41438431,31.5506087 L2.42426667,31.5506087 L21.1019137,31.5506087 C22.4557961,31.5366957 23.5400314,30.4250435 23.5273255,29.0671304 L23.5273255,29.056 L23.5273255,15.2695652 C23.5470902,13.9116522 22.4670902,12.7958261 21.1132078,12.7749565 L21.1019137,12.7749565 L21.0355608,12.7749565 L21.0355608,9.472 C21.0962667,4.30886957 16.978149,0.0709565217 11.8294431,1.4828718e-14 C6.69203137,0.0848695652 2.5908549,4.32 2.65438431,9.472 L2.65438431,9.472 Z" id="Fill-8"></path>
                </g>
                <g id="icon/k_08" transform="translate(100.000000, 0.000000)">
                    <g id="Group-18">
                        <mask id="mask-2" fill="white">
                            <use xlink:href="#path-1"></use>
                        </mask>
                        <g id="Clip-17"></g>
                        <path d="M21.4949333,21.4992696 C21.4949333,24.5197913 19.1482667,26.968487 16.2536,26.968487 C13.3589333,26.968487 11.0136,24.5197913 11.0136,21.4992696 L11.0136,10.772313 C11.0136,7.7517913 13.3589333,5.30309565 16.2536,5.30309565 C19.1482667,5.30309565 21.4949333,7.7517913 21.4949333,10.772313 L21.4949333,21.4992696 Z M16.2536,0.254052174 C7.9056,0.254052174 1.13626667,7.31770435 1.13626667,16.0300522 C1.13626667,24.7424 7.9056,31.8060522 16.2536,31.8060522 C24.6042667,31.8060522 31.3722667,24.7424 31.3722667,16.0300522 C31.3722667,7.31770435 24.6042667,0.254052174 16.2536,0.254052174 L16.2536,0.254052174 Z" id="Fill-16" fill="#FEFEFE" mask="url(#mask-2)"></path>
                        <path d="M16.6316,21.4000696 L16.6316,16.4818087 L18.9196,18.8428522 L16.6316,21.4000696 Z M16.6316,10.5896348 L18.9196,12.9506783 L16.6316,15.5078957 L16.6316,10.5896348 Z M19.5809333,12.9367652 L16.1556,9.40424348 L16.1556,15.2978087 L13.4662667,12.5249391 L13.1302667,12.8713739 L16.1556,15.9920696 L16.1556,16.0338087 L13.1302667,19.153113 L13.4662667,19.5009391 L16.1556,16.7280696 L16.1556,22.6564174 L19.5809333,18.8289391 L16.8369333,16.0018087 L19.5809333,12.9367652 Z" id="Fill-19" fill="#FEFEFE" mask="url(#mask-2)"></path>
                        <path d="M16.6316,21.4000696 L16.6316,16.4818087 L18.9196,18.8428522 L16.6316,21.4000696 Z M16.6316,10.5896348 L18.9196,12.9506783 L16.6316,15.5078957 L16.6316,10.5896348 Z M19.5809333,12.9367652 L16.1556,9.40424348 L16.1556,15.2978087 L13.4662667,12.5249391 L13.1302667,12.8713739 L16.1556,15.9920696 L16.1556,16.0338087 L13.1302667,19.153113 L13.4662667,19.5009391 L16.1556,16.7280696 L16.1556,22.6564174 L19.5809333,18.8289391 L16.8369333,16.0018087 L19.5809333,12.9367652 Z" id="Stroke-21" stroke="#FEFEFE" stroke-width="0.25" stroke-linecap="round" stroke-linejoin="round" mask="url(#mask-2)"></path>
                    </g>
                </g>
                <g id="icon/k_09" transform="translate(0.000000, 51.000000)" fill="#FEFEFE">
                    <g id="Group">
                        <path d="M0.401069067,18.1098973 L5.73532994,20.316506 C5.93985168,20.4013755 6.17359081,20.3707669 6.35167776,20.2358103 L24.213243,6.66224511 C24.3788082,6.53702772 24.579156,6.76520163 24.4400256,6.92241902 L11.3645473,21.6883321 C11.0640256,22.026419 11.1850691,22.5718103 11.5982865,22.7429408 L24.2382865,27.9714625 C24.5986343,28.1203321 25.0035038,27.9074625 25.0967212,27.5192886 L31.5315038,0.81876685 C31.6650691,0.263636415 31.0960256,-0.191320106 30.6076778,0.0813755457 L0.335677762,16.9203321 C-0.141539629,17.1846799 -0.101191803,17.9025929 0.401069067,18.1098973" id="Fill-1"></path>
                        <path d="M9.11439081,23.4793582 L16.1098691,26.3746625 C16.5662169,26.5638799 16.5745647,27.2275321 16.1223908,27.4278799 L10.3192604,31.5503147 L8.36586907,23.8925755 C8.43682559,23.5447495 8.79578211,23.3471842 9.11439081,23.4793582" id="Fill-3"></path>
                    </g>
                </g>
                <g id="icon/k_10" transform="translate(54.000000, 51.000000)">
                    <g id="Group-7">
                        <mask id="mask-4" fill="white">
                            <use xlink:href="#path-3"></use>
                        </mask>
                        <g id="Clip-6"></g>
                        <path d="M19.0938667,9.87353043 L10.9672,9.87353043 C10.5218667,9.87353043 10.1605333,9.48953043 10.1605333,9.01370435 C10.1605333,8.54066087 10.5218667,8.15526957 10.9672,8.15526957 L19.0938667,8.15526957 C19.5392,8.15526957 19.8992,8.54066087 19.8992,9.01370435 C19.8992,9.48953043 19.5392,9.87353043 19.0938667,9.87353043 M19.0938667,15.4276174 L10.9672,15.4276174 C10.5218667,15.4276174 10.1605333,15.0422261 10.1605333,14.5677913 C10.1605333,14.0933565 10.5218667,13.7079652 10.9672,13.7079652 L19.0938667,13.7079652 C19.5392,13.7079652 19.8992,14.0933565 19.8992,14.5677913 C19.8992,15.0422261 19.5392,15.4276174 19.0938667,15.4276174 M19.0938667,21.0192696 L10.9672,21.0192696 C10.5218667,21.0192696 10.1605333,20.6352696 10.1605333,20.1608348 C10.1605333,19.6850087 10.5218667,19.3010087 10.9672,19.3010087 L19.0938667,19.3010087 C19.5392,19.3010087 19.8992,19.6850087 19.8992,20.1608348 C19.8992,20.6352696 19.5392,21.0192696 19.0938667,21.0192696 M19.0938667,26.5010087 L10.9672,26.5010087 C10.5218667,26.5010087 10.1605333,26.1156174 10.1605333,25.6411826 C10.1605333,25.1667478 10.5218667,24.7827478 10.9672,24.7827478 L19.0938667,24.7827478 C19.5392,24.7827478 19.8992,25.1667478 19.8992,25.6411826 C19.8992,26.1156174 19.5392,26.5010087 19.0938667,26.5010087 M6.47253333,10.2394435 C5.93386667,10.2394435 5.4952,9.77196522 5.4952,9.19735652 C5.4952,8.62135652 5.93386667,8.15526957 6.47253333,8.15526957 C7.01253333,8.15526957 7.4512,8.62135652 7.4512,9.19735652 C7.4512,9.77196522 7.01253333,10.2394435 6.47253333,10.2394435 M6.47253333,15.7211826 C5.93386667,15.7211826 5.4952,15.2537043 5.4952,14.6790957 C5.4952,14.1030957 5.93386667,13.6370087 6.47253333,13.6370087 C7.01253333,13.6370087 7.4512,14.1030957 7.4512,14.6790957 C7.4512,15.2537043 7.01253333,15.7211826 6.47253333,15.7211826 M6.47253333,21.2029217 C5.93386667,21.2029217 5.4952,20.7354435 5.4952,20.1608348 C5.4952,19.5848348 5.93386667,19.1187478 6.47253333,19.1187478 C7.01253333,19.1187478 7.4512,19.5848348 7.4512,20.1608348 C7.4512,20.7354435 7.01253333,21.2029217 6.47253333,21.2029217 M6.47253333,26.6846609 C5.93386667,26.6846609 5.4952,26.2171826 5.4952,25.6411826 C5.4952,25.0665739 5.93386667,24.5990957 6.47253333,24.5990957 C7.01253333,24.5990957 7.4512,25.0665739 7.4512,25.6411826 C7.4512,26.2171826 7.01253333,26.6846609 6.47253333,26.6846609 M21.8258667,2.64570435 L19.8992,2.64570435 L19.8992,0.76466087 C19.8992,0.482226087 19.6858667,0.254052174 19.4218667,0.254052174 L16.7432,0.254052174 C16.4792,0.254052174 16.2658667,0.482226087 16.2658667,0.76466087 L16.2658667,2.64570435 L8.28853333,2.64570435 L8.28853333,0.76466087 C8.28853333,0.482226087 8.0752,0.254052174 7.81253333,0.254052174 L5.13253333,0.254052174 C4.86986667,0.254052174 4.65653333,0.482226087 4.65653333,0.76466087 L4.65653333,2.64570435 L2.72986667,2.64570435 C1.74053333,2.64570435 0.9392,3.50135652 0.9392,4.55596522 L0.9392,29.8971826 C0.9392,30.9504 1.74053333,31.8060522 2.72986667,31.8060522 L21.8258667,31.8060522 C22.8152,31.8060522 23.6165333,30.9504 23.6165333,29.8971826 L23.6165333,4.55596522 C23.6165333,3.50135652 22.8152,2.64570435 21.8258667,2.64570435" id="Fill-5" fill="#FEFEFE" mask="url(#mask-4)"></path>
                    </g>
                </g>
                <g id="icon/k_11" transform="translate(100.000000, 53.000000)">
                    <g id="Group-25">
                        <mask id="mask-6" fill="white">
                            <use xlink:href="#path-5"></use>
                        </mask>
                        <g id="Clip-24"></g>
                        <path d="M7.14003478,12.5583304 C5.63603478,10.9708522 5.79046957,8.54163478 7.48646957,7.13363478 C9.18246957,5.72563478 11.7758609,5.87033043 13.2812522,7.4578087 C14.7852522,9.04667826 14.6308174,11.4745043 12.9334261,12.8825043 C11.2374261,14.2918957 8.64403478,14.1472 7.14003478,12.5583304 M31.2429913,30.4338087 L31.2499478,30.4282435 L31.2527304,30.3823304 C31.2610783,30.3364174 31.2638609,30.293287 31.2638609,30.2501565 L31.5198609,27.089113 L31.5170783,27.089113 C31.5880348,26.8025043 31.5504696,26.5381565 31.3765565,26.353113 L19.5490783,13.8703304 C21.1101217,10.5576348 20.5842087,6.55206957 17.847513,3.66372174 C14.1062957,-0.283408696 7.65342609,-0.645147826 3.4349913,2.85676522 C-0.783443478,6.36146087 -1.17022609,12.4025043 2.57238261,16.3524174 C5.30907826,19.2393739 9.49133913,20.2063304 13.1936,19.1489391 L17.2951652,23.4800696 C17.3466435,23.5329391 17.431513,23.5552 17.5330783,23.541287 L20.6398609,23.0821565 C21.2770783,22.9889391 21.655513,23.3868522 21.4802087,23.9684174 L20.9000348,25.8884174 C20.7247304,26.4699826 21.1003826,26.8678957 21.7376,26.7746783 L23.8454261,26.4644174 C24.4812522,26.3712 24.8582957,26.769113 24.6829913,27.3506783 L23.8273391,30.1833739 C23.8009043,30.2752 23.8120348,30.357287 23.8649043,30.4115478 L25.0210783,31.6317217 C25.1949913,31.8167652 25.4718609,31.8835478 25.783513,31.8501565 L25.783513,31.8543304 L29.1629913,31.9920696 C29.211687,31.9976348 29.2589913,32.0004174 29.3104696,31.9990261 L29.3563826,32.0004174 L29.3633391,31.9948522 C29.7403826,31.9712 30.1758609,31.797287 30.555687,31.4814609 C30.9369043,31.1656348 31.1720348,30.7816348 31.2429913,30.4338087" id="Fill-23" fill="#FEFEFE" mask="url(#mask-6)"></path>
                    </g>
                </g>
                <g id="icon/k_12" transform="translate(0.000000, 101.000000)">
                    <g id="Group-30">
                        <mask id="mask-8" fill="white">
                            <use xlink:href="#path-7"></use>
                        </mask>
                        <g id="Clip-29"></g>
                        <path d="M18.4272,9.92306667 C18.2992,10.5697333 18.1245333,11.2124 17.9992,11.8964 C17.7818667,12.6270667 17.5685333,13.5297333 17.3512,14.6017333 C17.1352,15.6724 16.8792,17.0484 16.6218667,18.6817333 L15.6338667,18.6817333 C15.3778667,17.0497333 15.1218667,15.7177333 14.9032,14.6017333 C14.6858667,13.4857333 14.4752,12.5857333 14.2992,11.8524 C14.1258667,11.0777333 13.9538667,10.3924 13.8258667,9.83773333 C13.7178667,9.38573333 13.6605333,8.9244 13.6538667,8.45906667 C13.6018667,7.81373333 13.8752,7.1844 14.3845333,6.78306667 C14.8552,6.3284 15.4898667,6.07906667 16.1458667,6.09506667 C16.8018667,6.07373333 17.4378667,6.32173333 17.9072,6.7804 C18.3712,7.21506667 18.6352,7.82173333 18.6378667,8.4564 C18.6112,8.95106667 18.5392,9.44173333 18.4258667,9.92306667 L18.4272,9.92306667 Z M17.8232,24.2724 C16.8605333,25.1857333 15.3512,25.1857333 14.3898667,24.2724 C13.9245333,23.8377333 13.6605333,23.2297333 13.6592,22.5950667 C13.7058667,21.2697333 14.7805333,20.2124 16.1058667,20.1870667 C17.4152,20.1470667 18.5098667,21.1777333 18.5485333,22.4884 C18.5685333,23.1604 18.3032,23.8084 17.8192,24.2724 L17.8232,24.2724 Z M16.1458667,0.431066667 C7.7952,0.431066667 1.0272,7.19906667 1.0272,15.5484 C1.0272,23.8977333 7.7952,30.6670667 16.1458667,30.6670667 C24.4952,30.6670667 31.2645333,23.8977333 31.2645333,15.5484 C31.2645333,7.19906667 24.4952,0.431066667 16.1458667,0.431066667 L16.1458667,0.431066667 Z" id="Fill-28" fill="#FEFEFE" mask="url(#mask-8)"></path>
                    </g>
                </g>
                <g id="icon/k_14" transform="translate(50.000000, 100.000000)" fill="#FEFEFE">
                    <path d="M15.8024348,21.0696339 C12.896,21.0696339 10.541913,18.7155469 10.541913,15.8105034 C10.541913,12.9054599 12.896,10.5499817 15.8024348,10.5499817 C18.7074783,10.5499817 21.0629565,12.9054599 21.0629565,15.8105034 C21.0629565,18.7155469 18.7074783,21.0696339 15.8024348,21.0696339 L15.8024348,21.0696339 Z M31.4532174,14.0268513 C31.3363478,13.5621556 30.9147826,13.2407643 30.4375652,13.2505034 C28.5203478,13.2936339 26.9314783,11.7757208 26.8883478,9.85989473 C26.8646957,8.84285125 27.2904348,7.8661556 28.050087,7.18859038 C28.3937391,6.87972082 28.4354783,6.35659038 28.1488696,5.99345995 C27.4114783,5.06128603 26.5711304,4.21537299 25.6445217,3.47102517 C25.2813913,3.17885125 24.754087,3.21919908 24.4410435,3.56563386 C23.4309565,4.63137299 21.8782609,4.98198169 20.5092174,4.45745995 C19.1485217,3.87589473 18.2984348,2.50545995 18.381913,1.03067734 C18.4069565,0.565981687 18.0674783,0.161112122 17.6055652,0.104068644 C16.4271304,-0.0308878782 15.2375652,-0.0350617912 14.0577391,0.0943295131 C13.6027826,0.14441647 13.2633043,0.535372991 13.2758261,0.993112122 C13.3273043,2.45537299 12.466087,3.79659038 11.1123478,4.35589473 C9.74886957,4.86372082 8.21704348,4.51589473 7.20556522,3.47102517 C6.89669565,3.1301556 6.37773913,3.08841647 6.016,3.37085125 C5.07130435,4.11241647 4.21704348,4.95972082 3.46573913,5.89606864 C3.17913043,6.25919908 3.21669565,6.78093821 3.55478261,7.0981556 C4.65947826,8.0901556 5.01843478,9.67206864 4.4466087,11.0425034 C3.83165217,12.375373 2.48069565,13.2115469 1.01286957,13.1614599 C0.549565217,13.1336339 0.147478261,13.477286 0.104347826,13.9391991 C-0.0347826087,15.1287643 -0.0347826087,16.3322426 0.104347826,17.5231991 C0.218434783,17.9948513 0.648347826,18.3190252 1.13252174,18.2995469 C2.55721739,18.2856339 3.84556522,19.1440686 4.38121739,20.4616339 C4.9293913,21.8195469 4.57878261,23.3722426 3.50052174,24.3628513 C3.15965217,24.6731121 3.11652174,25.1934599 3.40313043,25.5551991 C4.13495652,26.4901556 4.97391304,27.3360686 5.89913043,28.0790252 C6.26086957,28.3725904 6.78817391,28.3336339 7.1026087,27.991373 C8.11547826,26.9256339 9.66817391,26.5736339 11.04,27.0995469 C12.4048696,27.6741556 13.2577391,29.0445904 13.170087,30.5221556 C13.1464348,30.9868513 13.485913,31.3903295 13.9478261,31.4459817 C14.5516522,31.5155469 15.1582609,31.5489382 15.7662609,31.550373 C16.3450435,31.5517208 16.9238261,31.5197208 17.4984348,31.4529382 C17.9561739,31.4014599 18.2970435,31.0077208 18.2803478,30.5471991 C18.226087,29.0863295 19.0845217,27.7451121 20.4354783,27.1844165 C21.7975652,26.6779817 23.3293913,27.0299817 24.333913,28.0776339 C24.6427826,28.4157208 25.1631304,28.4602426 25.522087,28.1750252 C26.4653913,27.4334599 27.3210435,26.5861556 28.0723478,25.6511991 C28.365913,25.2894599 28.3269565,24.7635469 27.9846957,24.4491121 C26.546087,23.1830252 26.4083478,20.9889382 27.6758261,19.5517208 C28.3464348,18.789286 29.3175652,18.3607643 30.3318261,18.3760686 L30.528,18.3760686 C30.9913043,18.4011121 31.3961739,18.0616339 31.4518261,17.5997208 C31.584,16.4115469 31.584,15.2136339 31.4518261,14.0254599 L31.4532174,14.0268513 Z" id="Fill-26"></path>
                </g>
                <g id="icon/k_15" transform="translate(104.000000, 100.000000)">
                    <g id="Group-37">
                        <mask id="mask-10" fill="white">
                            <use xlink:href="#path-9"></use>
                        </mask>
                        <g id="Clip-36"></g>
                        <path d="M19.03412,26.5733565 C19.00472,26.8989217 18.71632,27.1396174 18.38872,27.1117913 C18.06112,27.0825739 17.81892,26.7959652 17.84692,26.4704 L19.41492,8.65892174 C19.44432,8.33335652 19.73272,8.09266087 20.06032,8.12048696 C20.38792,8.14970435 20.63152,8.43631304 20.60212,8.76187826 L19.03412,26.5733565 Z M14.45332,26.5552696 C14.45332,26.8836174 14.18592,27.1479652 13.85692,27.1479652 C13.52792,27.1479652 13.26192,26.8836174 13.26192,26.5552696 L13.26192,8.6770087 C13.26192,8.34866087 13.52792,8.08431304 13.85692,8.08431304 C14.18592,8.08431304 14.45332,8.34866087 14.45332,8.6770087 L14.45332,26.5552696 Z M9.32372,27.1117913 C8.99752,27.1396174 8.70912,26.8989217 8.67972,26.5733565 L7.11172,8.76187826 C7.08372,8.43631304 7.32592,8.14970435 7.65212,8.12048696 C7.97972,8.09266087 8.26952,8.33335652 8.29752,8.65892174 L9.86552,26.4704 C9.89492,26.7959652 9.65272,27.0825739 9.32372,27.1117913 L9.32372,27.1117913 Z M8.53832,2.83353043 C8.53832,2.12674783 9.11512,1.55353043 9.82632,1.55353043 L17.88892,1.55353043 C18.59872,1.55353043 19.17552,2.12674783 19.17552,2.83353043 L19.17552,3.61126957 L8.53832,3.61126957 L8.53832,2.83353043 Z M26.58152,3.61126957 L20.81352,3.61126957 L20.81352,2.44953043 C20.81352,1.3490087 19.90912,0.450226087 18.80172,0.450226087 L8.91212,0.450226087 C7.80472,0.450226087 6.89892,1.3490087 6.89892,2.44953043 L6.89892,3.61126957 L1.13372,3.61126957 C0.57372,3.61126957 0.11592,4.06483478 0.11592,4.62274783 C0.11592,5.17787826 0.57372,5.63283478 1.13372,5.63283478 L3.74752,5.63283478 L5.62072,30.100313 C5.74392,31.2008348 6.69452,32.0272696 7.80752,31.9994435 L19.90632,31.9994435 C21.02072,32.0272696 21.97132,31.2008348 22.09312,30.100313 L23.96632,5.63283478 L26.58152,5.63283478 C27.14012,5.63283478 27.59652,5.17787826 27.59652,4.62274783 C27.59652,4.06483478 27.14012,3.61126957 26.58152,3.61126957 L26.58152,3.61126957 Z" id="Fill-35" fill="#FEFEFE" mask="url(#mask-10)"></path>
                    </g>
                </g>
            </g>
        </g>
    </g>
</svg>