<?xml version="1.0" encoding="UTF-8"?>
<svg width="132px" height="132px" viewBox="0 0 132 132" version="1.1" xmlns="http://www.w3.org/2000/svg" xmlns:xlink="http://www.w3.org/1999/xlink">
    <title>icon2</title>
    <defs>
        <filter id="filter-1">
            <feColorMatrix in="SourceGraphic" type="matrix" values="0 0 0 0 1.000000 0 0 0 0 1.000000 0 0 0 0 1.000000 0 0 0 1.000000 0"></feColorMatrix>
        </filter>
        <polygon id="path-2" points="0.250572951 0.23073913 23.3240735 0.23073913 23.3240735 19.0325739 0.250572951 19.0325739"></polygon>
        <filter id="filter-4">
            <feColorMatrix in="SourceGraphic" type="matrix" values="0 0 0 0 1.000000 0 0 0 0 1.000000 0 0 0 0 1.000000 0 0 0 1.000000 0"></feColorMatrix>
        </filter>
        <filter id="filter-5">
            <feColorMatrix in="SourceGraphic" type="matrix" values="0 0 0 0 1.000000 0 0 0 0 1.000000 0 0 0 0 1.000000 0 0 0 1.000000 0"></feColorMatrix>
        </filter>
        <filter id="filter-6">
            <feColorMatrix in="SourceGraphic" type="matrix" values="0 0 0 0 1.000000 0 0 0 0 1.000000 0 0 0 0 1.000000 0 0 0 1.000000 0"></feColorMatrix>
        </filter>
        <filter id="filter-7">
            <feColorMatrix in="SourceGraphic" type="matrix" values="0 0 0 0 1.000000 0 0 0 0 1.000000 0 0 0 0 1.000000 0 0 0 1.000000 0"></feColorMatrix>
        </filter>
        <polygon id="path-8" points="0 0.619267286 12.9356 0.619267286 12.9356 10.6740403 0 10.6740403"></polygon>
        <polygon id="path-10" points="0.3028 0.657974125 13.275 0.657974125 13.275 10.7106127 0.3028 10.7106127"></polygon>
        <filter id="filter-12">
            <feColorMatrix in="SourceGraphic" type="matrix" values="0 0 0 0 1.000000 0 0 0 0 1.000000 0 0 0 0 1.000000 0 0 0 1.000000 0"></feColorMatrix>
        </filter>
        <filter id="filter-13">
            <feColorMatrix in="SourceGraphic" type="matrix" values="0 0 0 0 1.000000 0 0 0 0 1.000000 0 0 0 0 1.000000 0 0 0 1.000000 0"></feColorMatrix>
        </filter>
        <filter id="filter-14">
            <feColorMatrix in="SourceGraphic" type="matrix" values="0 0 0 0 1.000000 0 0 0 0 1.000000 0 0 0 0 1.000000 0 0 0 1.000000 0"></feColorMatrix>
        </filter>
        <polygon id="path-15" points="0.498868966 0.20263328 31.2904828 0.20263328 31.2904828 21.1876671 0.498868966 21.1876671"></polygon>
        <filter id="filter-17">
            <feColorMatrix in="SourceGraphic" type="matrix" values="0 0 0 0 1.000000 0 0 0 0 1.000000 0 0 0 0 1.000000 0 0 0 1.000000 0"></feColorMatrix>
        </filter>
        <polygon id="path-18" points="0.785946563 0.244 31.0766001 0.244 31.0766001 30.4804516 0.785946563 30.4804516"></polygon>
    </defs>
    <g id="Symbols" stroke="none" stroke-width="1" fill="none" fill-rule="evenodd">
        <g id="icon2">
            <g>
                <g filter="url(#filter-1)" fill="#FFFFFF" id="icon/o_08">
                    <g>
                        <path d="M20.2050016,24.1607826 L20.2050016,24.1607826 L11.4767159,15.2111304 C11.4463587,15.2111304 11.4172159,15.2199565 11.3844302,15.2199565 C10.427573,15.2237391 9.56057303,14.6298696 9.18778731,13.7157391 C8.81985874,12.8041304 9.02507303,11.7525652 9.70385874,11.0603478 L15.7242873,4.89217391 L13.6952159,2.83947826 C10.5817873,-0.332869565 5.60928731,-0.374478261 2.4485016,2.74491304 C-0.697712687,5.8416087 -0.828855544,10.9998261 2.15343017,14.2667391 C2.21657303,14.3348261 2.27971588,14.4041739 2.3465016,14.4697391 L16.003573,28.467913 C16.4698587,28.942 17.2166445,28.942 17.6829302,28.467913 C18.1407159,28.0001304 18.1480016,27.2347826 17.6975016,26.7606957 L17.6829302,26.7455652 L7.17814446,15.9752174 C7.02878731,15.8226522 6.9705016,15.5969565 7.02514446,15.3863913 C7.07978731,15.1758261 7.24007303,15.0106522 7.44407303,14.9551739 C7.64928731,14.8984348 7.86785874,14.9589565 8.01843017,15.1127826 L18.5244302,25.8831304 C18.9919302,26.3572174 19.7375016,26.3572174 20.2050016,25.8831304 C20.6627873,25.414087 20.6688587,24.6487391 20.2171445,24.1733913 C20.2135016,24.1683478 20.2086445,24.1645652 20.2050016,24.1607826" id="Fill-1" fill="#BD3D39"></path>
                        <path d="M22.582573,21.577513 L14.3108587,12.9884696 L12.9277873,14.4246 C12.8257873,14.5279913 12.7152873,14.6212957 12.5975016,14.704513 L20.9044302,23.3313826 C21.3306445,23.8533826 22.0822873,23.9189478 22.5862159,23.4776435 C23.0889302,23.0350783 23.1532873,22.2546 22.727073,21.7313391 C22.684573,21.6783826 22.6372159,21.6292087 22.5862159,21.5850783 C22.5862159,21.5850783 22.5850016,21.5800348 22.582573,21.577513" id="Fill-3" fill="#BD3D39"></path>
                        <path d="M25.0810873,19.0199652 L16.8045159,10.4258783 L15.1239445,12.1684 L23.4041587,20.7662696 L23.4041587,20.771313 C23.8692302,21.2529652 24.620873,21.2504435 25.0835159,20.7662696 C25.547373,20.2833565 25.5449445,19.5016174 25.0786587,19.0212261 L25.0810873,19.0199652 Z" id="Fill-5" fill="#BD3D39"></path>
                        <g id="Group-9" stroke-width="1" fill="none" transform="translate(9.713937, 0.000000)">
                            <mask id="mask-3" fill="white">
                                <use xlink:href="#path-2"></use>
                            </mask>
                            <g id="Clip-8"></g>
                            <path d="M20.9619714,2.6854 C17.9141143,-0.507121739 12.9731857,-0.597904348 9.81847143,2.48366087 L7.02925714,5.37735652 L0.582614286,12.0650087 C0.127257143,12.5567478 0.141828571,13.338487 0.616614286,13.8100522 C1.07561429,14.2690087 1.80175714,14.2690087 2.26197143,13.811313 L4.06397143,11.9401826 L6.57754286,9.32892174 L8.55561429,7.27496522 C8.78875714,7.03413913 9.16397143,7.03287826 9.39711429,7.27496522 C9.41047143,7.28883478 9.42382857,7.30396522 9.43718571,7.32035652 C10.3649,8.44126957 11.6605429,9.1687913 13.0727571,9.35792174 C14.4036143,9.3554 15.6689,8.75522609 16.5407571,7.71122609 C16.7739,7.4704 17.1491143,7.4704 17.3810429,7.71122609 C17.6129714,7.95331304 17.6129714,8.34292174 17.3810429,8.5850087 C16.2724,9.88118261 14.6744,10.612487 13.0047571,10.592313 C11.4759714,10.4372261 10.0467571,9.7324 8.96604286,8.59509565 L7.83675714,9.76770435 L16.1181857,18.3655739 C16.3003286,18.5597478 16.4496857,18.7867043 16.5614,19.0325739 L21.0943286,14.3194435 L21.1441143,14.2652261 C24.1203286,10.9932696 24.0389714,5.85522609 20.9619714,2.6854" id="Fill-7" fill="#BD3D39" mask="url(#mask-3)"></path>
                        </g>
                    </g>
                </g>
                <g filter="url(#filter-4)" fill="#FFFFFF" id="icon/o_09">
                    <g transform="translate(0.000000, 103.000000)">
                        <path d="M3.27881554,16.2378552 C-6.02550446,6.88105518 6.48649554,-6.12374482 15.7869755,3.23305518 C24.5447355,-5.86902482 37.2551355,6.92073518 28.5024955,16.0215352 L15.9930555,29.0263352 L3.27881554,16.2378552 Z" id="Fill-44" fill="#BD3D39"></path>
                    </g>
                </g>
                <g filter="url(#filter-5)" fill="#FFFFFF" id="icon/o_05">
                    <g transform="translate(50.000000, 50.000000)">
                        <path d="M20.077913,21.8657391 C19.1930435,22.7881739 17.9909565,23.3377391 16.7151304,23.4017391 L16.7151304,25.6347826 L14.848,25.6347826 L14.848,23.4142609 C12.4034783,23.1652174 10.8897391,21.7446957 10.3095652,19.1554783 L13.197913,18.4027826 C13.4650435,20.0292174 14.3513043,20.8431304 15.8553043,20.8431304 C16.4229565,20.8918261 16.9850435,20.7026087 17.4093913,20.3213913 C17.7349565,19.981913 17.9144348,19.5283478 17.9046957,19.058087 C17.9353043,18.6156522 17.7502609,18.1843478 17.4093913,17.8991304 C16.7206957,17.4678261 15.9777391,17.1311304 15.1972174,16.8987826 C14.3624348,16.6274783 13.5568696,16.2726957 12.7916522,15.8413913 C12.2031304,15.4838261 11.7175652,14.9815652 11.3822609,14.3805217 C11.0121739,13.7113043 10.8271304,12.9558261 10.8438261,12.192 C10.834087,11.1276522 11.1749565,10.0925217 11.8107826,9.24104348 C12.5593043,8.31026087 13.6598261,7.73147826 14.8493913,7.63965217 L14.8493913,5.91582609 L16.717913,5.91582609 L16.717913,7.63826087 C18.7005217,7.79965217 20.3450435,9.23826087 20.7693913,11.181913 L18.1954783,12.237913 C17.6932174,10.7895652 16.9182609,10.066087 15.8678261,10.066087 C15.3961739,10.0438261 14.9370435,10.2191304 14.5989565,10.5502609 C14.2845217,10.8605217 14.112,11.2862609 14.1189565,11.7273043 C14.093913,12.141913 14.2650435,12.5426087 14.5808696,12.8097391 C15.1930435,13.2104348 15.8594783,13.5234783 16.557913,13.741913 C17.4566957,14.0521739 18.3290435,14.4347826 19.168,14.8869565 C19.794087,15.2431304 20.3144348,15.757913 20.6789565,16.3798261 C21.0657391,17.056 21.2605217,17.8267826 21.2438261,18.605913 C21.2827826,19.8010435 20.8653913,20.9669565 20.077913,21.8657391 M15.776,-2.71859829e-14 C7.06365217,-2.71859829e-14 -2.22430769e-13,7.06226087 -2.22430769e-13,15.7746087 C-2.22430769e-13,24.4883478 7.06365217,31.5506087 15.776,31.5506087 C24.4883478,31.5506087 31.5506087,24.4883478 31.5506087,15.7746087 C31.5506087,7.06226087 24.4883478,-2.71859829e-14 15.776,-2.71859829e-14" id="Fill-42" fill="#BD3D39"></path>
                    </g>
                </g>
                <g filter="url(#filter-6)" fill="#FFFFFF" id="icon/o_04">
                    <g transform="translate(50.000000, 0.000000)">
                        <path d="M15.776,2.90395727e-14 C24.4883478,2.90395727e-14 31.5506087,7.06226087 31.5506087,15.7746087 C31.5506087,24.4883478 24.4883478,31.5506087 15.776,31.5506087 C7.06226087,31.5506087 -4.34203398e-13,24.4883478 -4.34203398e-13,15.7746087 C-4.34203398e-13,7.06226087 7.06226087,2.90395727e-14 15.776,2.90395727e-14 Z M20.1146435,8.59965217 L15.7765565,13.6375652 L11.4370783,8.59965217 C10.9334261,8.01669565 10.0527304,7.94991304 9.46977391,8.45217391 C8.88542609,8.95721739 8.81864348,9.83652174 9.32229565,10.4208696 L13.9344696,15.7746087 L9.32229565,21.1297391 C8.82003478,21.714087 8.88542609,22.5933913 9.46977391,23.0984348 C10.0527304,23.6006957 10.9334261,23.5353043 11.4370783,22.9509565 L15.7765565,17.9130435 L20.1146435,22.9509565 C20.6169043,23.5353043 21.4989913,23.6006957 22.0833391,23.0984348 C22.667687,22.5933913 22.7330783,21.714087 22.2294261,21.1297391 L17.6172522,15.7746087 L22.2294261,10.4208696 C22.7330783,9.83652174 22.667687,8.95721739 22.0833391,8.45356522 C21.4989913,7.94991304 20.6182957,8.01669565 20.1146435,8.59965217 Z" id="Combined-Shape" fill="#BD3D39"></path>
                    </g>
                </g>
                <g id="icon/o_07" transform="translate(95.000000, 108.891892)">
                    <g filter="url(#filter-7)" id="Group-15">
                        <g>
                            <path d="M7.0635,0.0003 C9.6105,0.0003 11.6745,2.0643 11.6745,4.6113 C11.6745,7.1583 9.6105,9.2233 7.0635,9.2233 C4.5165,9.2233 2.4525,7.1583 2.4525,4.6113 C2.4525,2.0643 4.5165,0.0003 7.0635,0.0003" id="Fill-1" fill="#BD3D39"></path>
                            <g id="Group-5" transform="translate(0.000000, 9.677200)">
                                <mask id="mask-9" fill="white">
                                    <use xlink:href="#path-8"></use>
                                </mask>
                                <g id="Clip-4"></g>
                                <path d="M12.9356,2.9843 C12.0536,1.5183 10.4686,0.6213 8.7586,0.619267286 L5.3296,0.619267286 C2.8556,0.6103 0.7696,2.4593 0.4806,4.9153 L0.0076,8.9343 C-0.0574,9.4523 0.2856,9.9333 0.7956,10.0383 C2.8566,10.4753 4.9566,10.6883 7.0626,10.6733 C8.1426,10.6803 9.2216,10.6283 10.2946,10.5153 L10.7286,7.0873 C10.9326,5.4933 11.7186,4.0323 12.9356,2.9843" id="Fill-3" fill="#BD3D39" mask="url(#mask-9)"></path>
                            </g>
                            <path d="M29.1748,0.0003 C31.7218,0.0003 33.7868,2.0643 33.7868,4.6113 C33.7868,7.1583 31.7218,9.2233 29.1748,9.2233 C26.6278,9.2233 24.5638,7.1583 24.5638,4.6113 C24.5638,2.0643 26.6278,0.0003 29.1748,0.0003" id="Fill-6" fill="#BD3D39"></path>
                            <g id="Group-10" transform="translate(23.000000, 9.677200)">
                                <mask id="mask-11" fill="white">
                                    <use xlink:href="#path-10"></use>
                                </mask>
                                <g id="Clip-9"></g>
                                <path d="M12.7578,4.954 C12.4688,2.498 10.3818,0.65 7.9088,0.657974125 L4.4808,0.657974125 C2.7698,0.661 1.1848,1.558 0.3028,3.023 C1.5578,4.044 2.3638,5.516 2.5488,7.123 L2.9828,10.552 C4.0558,10.664 5.1348,10.717 6.2138,10.71 C8.3188,10.703 10.4178,10.491 12.4808,10.075 C12.9818,9.957 13.3188,9.487 13.2708,8.975 L12.7578,4.954 Z" id="Fill-8" fill="#BD3D39" mask="url(#mask-11)"></path>
                            </g>
                            <path d="M19.8154,12.6614673 L16.3854,12.6614673 C13.9124,12.6525 11.8264,14.5005 11.5374,16.9575 L11.0634,20.9375 C10.9854,21.4585 11.3344,21.9475 11.8514,22.0415 C13.9124,22.4765 16.0124,22.6895 18.1184,22.6765 C20.2224,22.6705 22.3224,22.4585 24.3844,22.0415 C24.8864,21.9225 25.2234,21.4515 25.1724,20.9375 L24.7004,16.9575 C24.3794,14.5025 22.2914,12.6645 19.8154,12.6614673" id="Fill-11" fill="#BD3D39"></path>
                            <path d="M18.1192,2.3255 C20.6662,2.3255 22.7302,4.3895 22.7302,6.9365 C22.7302,9.4835 20.6662,11.5485 18.1192,11.5485 C15.5722,11.5485 13.5082,9.4835 13.5082,6.9365 C13.5082,4.3895 15.5722,2.3255 18.1192,2.3255" id="Fill-13" fill="#BD3D39"></path>
                        </g>
                    </g>
                </g>
                <g filter="url(#filter-12)" fill="#FFFFFF" id="icon/o_06">
                    <g transform="translate(100.000000, 54.000000)">
                        <path d="M27.2840163,10.3029348 C25.9322922,11.4148913 24.2241542,12.0181522 22.4630508,12.0051087 C20.7052577,11.998587 19.002637,11.3975 17.6398784,10.3029348 C16.8950508,10.9529348 16.2451198,11.7018478 15.7121542,12.5301087 C17.9664991,14.9355435 19.3469129,18.0116304 19.6338094,21.273587 C20.4658094,21.3377174 21.4324301,21.3725 22.4608439,21.3725 C25.1940853,21.4061957 27.9184991,21.0301087 30.5391887,20.2572826 C31.0004301,20.1181522 31.3027749,19.6844565 31.2696715,19.2094565 C31.1990508,15.8366304 29.7634646,12.6301087 27.2840163,10.3029348" id="Fill-10" fill="#BD3D39"></path>
                        <path d="M22.4607335,10.151087 C25.3054232,10.151087 27.6127335,7.87826087 27.6127335,5.075 C27.6127335,2.27173913 25.3054232,0 22.4607335,0 C19.6149404,0 17.3076301,2.27173913 17.3076301,5.075 C17.3076301,7.87826087 19.6149404,10.151087 22.4607335,10.151087" id="Fill-12" fill="#BD3D39"></path>
                        <path d="M13.6299473,13.5446739 C10.8304991,15.8153261 6.78967148,15.8153261 3.9902232,13.5446739 C1.72925769,15.4772826 0.198774928,18.7196739 0.0012576865,22.4848913 C-0.0219147273,22.9566304 0.277119755,23.3859783 0.732843893,23.5327174 C3.35353355,24.3055435 6.07684389,24.6805435 8.81118872,24.6468478 C11.5455335,24.6805435 14.2699473,24.3055435 16.8895335,23.5327174 C17.3507749,23.393587 17.6531198,22.9588043 17.6211198,22.4848913 C17.4202922,18.7196739 15.8909129,15.443587 13.6299473,13.5446739" id="Fill-14" fill="#BD3D39"></path>
                        <path d="M8.80887148,13.3929348 C11.6546646,13.3929348 13.9619749,11.1201087 13.9619749,8.31684783 C13.9619749,5.51467391 11.6546646,3.24184783 8.80887148,3.24184783 C5.96307838,3.24184783 3.65576803,5.51467391 3.65576803,8.31684783 C3.65576803,11.1201087 5.96307838,13.3929348 8.80887148,13.3929348" id="Fill-16" fill="#BD3D39"></path>
                    </g>
                </g>
                <g filter="url(#filter-13)" fill="#FFFFFF" id="icon/o_03">
                    <g transform="translate(100.000000, 0.000000)">
                        <path d="M29.1876182,1.25117308e-14 L1.82287747,1.25117308e-14 C0.808358956,0.00704347826 -0.00823363652,0.828782609 6.90542274e-13,1.83365217 L6.90542274e-13,1.83482609 L6.90542274e-13,26.6208261 L4.52747007,22.0742609 L29.1876182,22.0742609 C30.2009515,22.0660435 31.0175441,21.2466522 31.0105366,20.2417826 L31.0105366,1.83482609 C31.0210997,0.831130435 30.2068775,0.00939130435 29.1935441,1.25117308e-14 L29.1876182,1.25117308e-14 Z" id="Fill-18" fill="#BD3D39"></path>
                    </g>
                </g>
                <g filter="url(#filter-14)" fill="#FFFFFF" id="icon/o_01">
                    <g transform="translate(0.000000, 53.000000)">
                        <g id="Group-22" stroke-width="1" fill="none">
                            <mask id="mask-16" fill="white">
                                <use xlink:href="#path-15"></use>
                            </mask>
                            <g id="Clip-21"></g>
                            <path d="M31.0312828,4.55371034 C30.7819034,4.27895172 30.4288,4.12336552 30.0580414,4.12446897 L7.75845517,4.12446897 L6.88342069,1.03481379 C6.71790345,0.517296552 6.22466207,0.176331034 5.68176552,0.20502069 L1.73031724,0.20502069 C1.09031724,0.164193103 0.538593103,0.651917241 0.498868966,1.29191724 C0.538593103,1.93191724 1.09031724,2.41853793 1.73031724,2.37881379 L4.74493793,2.37881379 L9.73583448,20.348469 C9.90245517,20.8648828 10.3934897,21.2058483 10.9341793,21.1793655 L25.1631448,21.1793655 C25.7645241,21.2532966 26.310731,20.8251586 26.3835586,20.2248828 C26.4563862,19.6235034 26.0293517,19.0772966 25.4279724,19.004469 C25.3408,18.9934345 25.2514207,18.9934345 25.1631448,19.004469 L11.8765241,19.004469 L11.1603862,16.4577103 L27.1085241,16.4577103 C27.6370759,16.464331 28.1137655,16.144331 28.3079724,15.6544 L31.2563862,5.46626207 C31.3446621,5.14295172 31.2596966,4.79867586 31.0312828,4.55371034" id="Fill-20" fill="#BD3D39" mask="url(#mask-16)"></path>
                        </g>
                        <path d="M13.0065655,21.9987862 C13.8970483,21.9987862 14.6198069,22.7204414 14.6198069,23.6120276 C14.6198069,24.5036138 13.8970483,25.225269 13.0065655,25.225269 C12.1149793,25.225269 11.3933241,24.5036138 11.3933241,23.6120276 C11.3933241,22.7204414 12.1149793,21.9987862 13.0065655,21.9987862" id="Fill-23" fill="#BD3D39"></path>
                        <path d="M23.3416828,21.9987862 C24.233269,21.9987862 24.9549241,22.7204414 24.9549241,23.6120276 C24.9549241,24.5036138 24.233269,25.225269 23.3416828,25.225269 C22.4512,25.225269 21.7284414,24.5036138 21.7284414,23.6120276 C21.7284414,22.7204414 22.4512,21.9987862 23.3416828,21.9987862" id="Fill-25" fill="#BD3D39"></path>
                    </g>
                </g>
                <g filter="url(#filter-17)" fill="#FFFFFF" id="icon/o_02">
                    <g transform="translate(50.000000, 101.000000)">
                        <g id="Group-48" fill="none">
                            <mask id="mask-19" fill="white">
                                <use xlink:href="#path-18"></use>
                            </mask>
                            <g id="Clip-47"></g>
                            <path d="M22.5834667,9.01546667 L29.1261333,9.99946667 C30.4221333,10.2421333 31.2781333,11.4874667 31.0354667,12.7834667 C30.9474667,13.2528 30.7221333,13.6834667 30.3888,14.0234667 L25.6621333,18.8408 C25.1248,19.3941333 24.8848,20.1701333 25.0128,20.9301333 L26.1381333,27.7234667 C26.3914667,28.9594667 25.5981333,30.1661333 24.3621333,30.4221333 C23.8514667,30.5261333 23.3221333,30.4541333 22.8581333,30.2154667 L17.0021333,27.0141333 C16.3474667,26.6528 15.5541333,26.6528 14.8968,27.0141333 L9.04613333,30.2288 C7.92346667,30.8034667 6.54746667,30.3608 5.97146667,29.2381333 C5.7368,28.7781333 5.6648,28.2528 5.76613333,27.7461333 L6.8768,20.9474667 C7.00213333,20.1874667 6.75946667,19.4128 6.22213333,18.8594667 L1.47813333,14.0581333 C0.550133333,13.1221333 0.555466667,11.6101333 1.4928,10.6834667 C1.83013333,10.3474667 2.25946667,10.1221333 2.72613333,10.0328 L9.26746667,9.03413333 C10.0141333,8.9128 10.6541333,8.4288 10.9688,7.7408 L13.8888,1.55946667 C14.3888,0.438133333 15.7034667,-0.0632 16.8234667,0.438133333 C17.3221333,0.6608 17.7221333,1.0608 17.9448,1.55946667 L20.8781333,7.7408 C21.1994667,8.42346667 21.8381333,8.9008 22.5834667,9.01546667" id="Fill-46" fill="#BD3D39" mask="url(#mask-19)"></path>
                        </g>
                    </g>
                </g>
            </g>
        </g>
    </g>
</svg>