<?xml version="1.0" encoding="UTF-8"?>
<svg width="20px" height="20px" viewBox="0 0 20 20" version="1.1" xmlns="http://www.w3.org/2000/svg" xmlns:xlink="http://www.w3.org/1999/xlink">
    <title>IG</title>
    <defs>
        <filter id="filter-1">
            <feColorMatrix in="SourceGraphic" type="matrix" values="0 0 0 0 0.066667 0 0 0 0 0.066667 0 0 0 0 0.066667 0 0 0 1.000000 0"></feColorMatrix>
        </filter>
    </defs>
    <g id="Symbols" stroke="none" stroke-width="1" fill="none" fill-rule="evenodd">
        <g id="icon/IG">
            <g filter="url(#filter-1)" id="IG">
                <g>
                    <path d="M13.3161683,10.0484063 C13.3113646,11.8848646 11.8137604,13.3636146 9.97001042,13.3529434 C8.15740625,13.3422604 6.68167708,11.8600729 6.67697855,10.0453854 C6.67230208,8.20705208 8.16230208,6.71278125 9.99896875,6.71361423 C11.8371979,6.71465625 13.3210521,8.20642708 13.3161683,10.0484063 M17.746501,3.3934375 C17.7473333,2.80916667 17.2510833,2.29979167 16.6642083,2.2825 C16.0637917,2.26489583 15.5282708,2.78697917 15.5273323,3.3909375 C15.5265,3.974375 16.0236875,4.48458333 16.6100417,4.50166667 C17.2112917,4.51916667 17.7455625,3.99822917 17.746501,3.3934375 M9.99920833,4.50947842 C6.92222917,4.50791667 4.46629167,6.9671875 4.47273729,10.0432292 C4.4793125,13.1004167 6.91347917,15.5428125 9.96785417,15.5568303 C13.0461875,15.5707292 15.5123333,13.1242708 15.5200603,10.0485417 C15.5278542,6.970625 13.0762917,4.51104167 9.99920833,4.50947842 M19.9570208,10.0596875 C19.9570208,11.5116667 19.9631667,12.9636458 19.9556667,14.415625 C19.9395208,17.5435417 17.5215,19.9782292 14.4034792,19.9909375 C11.4649375,20.0029167 8.5261875,20.0030208 5.58775,19.9909375 C2.470875,19.9780208 0.0473333333,17.54 0.03775,14.4139583 C0.0287916667,11.4926042 0.0286875,8.57125 0.03775,5.65 C0.0474375,2.52458333 2.47222917,0.0875 5.58952083,0.0752083333 C8.52795833,0.0635416667 11.4667083,0.0633333333 14.40525,0.0752083333 C17.5224375,0.0878125 19.9397292,2.52291667 19.9556667,5.65177083 C19.9631667,7.12104167 19.9570208,8.59041667 19.9570208,10.0596875" id="Fill-6" fill="#1B1B1B"></path>
                </g>
            </g>
        </g>
    </g>
</svg>