<?xml version="1.0" encoding="UTF-8"?>
<svg width="148px" height="148px" viewBox="0 0 148 148" version="1.1" xmlns="http://www.w3.org/2000/svg" xmlns:xlink="http://www.w3.org/1999/xlink">
    <title>uiux_75</title>
    <g id="Symbols" stroke="none" stroke-width="1" fill="none" fill-rule="evenodd">
        <g id="uiux_75" transform="translate(-1.000000, -1.000000)">
            <g>
                <path d="M75,1 C115.869071,1 149,34.1309285 149,75 C149,115.869071 115.869071,149 75,149 C34.1309285,149 1,115.869071 1,75 C1,34.1309285 34.1309285,1 75,1 Z M75,19.7126437 C44.4656362,19.7126437 19.7126437,44.4656362 19.7126437,75 C19.7126437,105.534364 44.4656362,130.287356 75,130.287356 C105.534364,130.287356 130.287356,105.534364 130.287356,75 C130.287356,44.4656362 105.534364,19.7126437 75,19.7126437 Z" id="Combined-Shape" fill="#DBE0F3"></path>
                <path d="M75,1 C115.869071,1 149,34.1309285 149,75 C149,115.869071 115.869071,149 75,149 C34.1309285,149 1,115.869071 1,75 L1.00000001,74.9989983 L19.7126437,74.9979978 C19.7126437,74.9986652 19.7126437,74.9993326 19.7126437,75 C19.7126437,105.534364 44.4656362,130.287356 75,130.287356 C105.534364,130.287356 130.287356,105.534364 130.287356,75 C130.287356,44.4656362 105.534364,19.7126437 75,19.7126437 L75,1 Z" id="Combined-Shape" fill="#20B2AA"></path>
                <text id="75%" font-family="MicrosoftJhengHeiBold, Microsoft JhengHei" font-size="30" font-weight="bold" fill="#8A8A8A">
                    <tspan x="44.09375" y="87">75%</tspan>
                </text>
            </g>
        </g>
    </g>
</svg>