<?xml version="1.0" encoding="UTF-8"?>
<svg width="150px" height="150px" viewBox="0 0 150 150" version="1.1" xmlns="http://www.w3.org/2000/svg" xmlns:xlink="http://www.w3.org/1999/xlink">
    <title>web_50</title>
    <g id="Symbols" stroke="none" stroke-width="1" fill="none" fill-rule="evenodd">
        <g id="web_50">
            <g>
                <path d="M75,1 C115.869071,1 149,34.1309285 149,75 C149,115.869071 115.869071,149 75,149 C34.1309285,149 1,115.869071 1,75 C1,34.1309285 34.1309285,1 75,1 Z M75,19.7126437 C44.4656362,19.7126437 19.7126437,44.4656362 19.7126437,75 C19.7126437,105.534364 44.4656362,130.287356 75,130.287356 C105.534364,130.287356 130.287356,105.534364 130.287356,75 C130.287356,44.4656362 105.534364,19.7126437 75,19.7126437 Z" id="Combined-Shape-Copy-5" fill="#DBE0F3"></path>
                <path d="M74.9271461,1 C115.836454,1 149,34.1309285 149,75 C149,115.869071 115.836454,149 74.9271461,149 C52.4685568,149 32.3444186,139.014857 18.7602423,123.245945 L32.9633927,111.04585 C43.1124896,122.827204 58.1477542,130.287356 74.9271461,130.287356 C105.491571,130.287356 130.268933,105.534364 130.268933,75 C130.268933,44.4656362 105.491571,19.7126437 74.9271461,19.7126437 L74.9271461,1 Z" id="Combined-Shape" fill="#20B2AA"></path>
                <text id="60%" font-family="MicrosoftJhengHeiBold, Microsoft JhengHei" font-size="30" font-weight="bold" fill="#8A8A8A">
                    <tspan x="44.09375" y="87">60%</tspan>
                </text>
            </g>
        </g>
    </g>
</svg>